<svg xmlns="http://www.w3.org/2000/svg" xmlns:xlink="http://www.w3.org/1999/xlink" width="672" zoomAndPan="magnify" viewBox="0 0 504 143.999998" height="192" preserveAspectRatio="xMidYMid meet" version="1.0"><defs><g/><clipPath id="a0734f1a93"><path d="M 394 24 L 497.496094 24 L 497.496094 127 L 394 127 Z M 394 24 " clip-rule="nonzero"/></clipPath><clipPath id="57fb5847df"><path d="M 6.246094 24 L 110 24 L 110 127 L 6.246094 127 Z M 6.246094 24 " clip-rule="nonzero"/></clipPath></defs><g clip-path="url(#a0734f1a93)"><path fill="#ccb13b" d="M 466.960938 24.65625 C 443.253906 34.480469 419.039062 42.605469 394.492188 49.046875 C 401.296875 74.988281 408.105469 100.929688 414.90625 126.875 C 442.960938 119.515625 470.648438 110.222656 497.753906 98.992188 C 486.398438 89.179688 475.40625 79.101562 464.78125 68.78125 C 465.925781 54.011719 466.652344 39.296875 466.960938 24.65625 Z M 466.960938 24.65625 " fill-opacity="1" fill-rule="nonzero"/></g><g clip-path="url(#57fb5847df)"><path fill="#ccb13b" d="M 37.035156 24.65625 C 60.742188 34.480469 84.957031 42.605469 109.503906 49.046875 C 102.699219 74.988281 95.890625 100.929688 89.089844 126.871094 C 61.035156 119.515625 33.351562 110.21875 6.246094 98.992188 C 17.597656 89.179688 28.589844 79.101562 39.214844 68.78125 C 38.070312 54.011719 37.34375 39.296875 37.035156 24.65625 Z M 37.035156 24.65625 " fill-opacity="1" fill-rule="nonzero"/></g><path fill="#8f7d2c" d="M 414.902344 126.875 C 424.476562 116.222656 433.5625 105.351562 442.152344 94.304688 C 431.140625 97.855469 420.058594 101.097656 408.910156 104.023438 C 410.910156 111.636719 412.90625 119.257812 414.902344 126.875 Z M 414.902344 126.875 " fill-opacity="1" fill-rule="nonzero"/><path fill="#8f7d2c" d="M 89.089844 126.871094 C 79.515625 116.222656 70.433594 105.351562 61.839844 94.296875 C 72.851562 97.855469 83.9375 101.097656 95.085938 104.019531 C 93.085938 111.636719 91.089844 119.257812 89.089844 126.871094 Z M 89.089844 126.871094 " fill-opacity="1" fill-rule="nonzero"/><path fill="#e8c940" d="M 86.773438 17.125 C 78.527344 42.644531 70.285156 68.167969 62.039062 93.691406 C 185.511719 133.585938 318.480469 133.589844 441.953125 93.691406 C 433.707031 68.167969 425.464844 42.652344 417.21875 17.128906 C 309.824219 51.828125 194.171875 51.824219 86.773438 17.125 Z M 86.773438 17.125 " fill-opacity="1" fill-rule="nonzero"/><g fill="#52439f" fill-opacity="0.4"><g transform="translate(112.24076, 75.558685)"><g><path d="M 27.359375 9.90625 L 33.09375 -6.0625 L 20.515625 4.25 L 17.734375 3.234375 L 14.59375 -12.390625 L 8.9375 3.234375 L 3.15625 1.140625 L 12.78125 -25.453125 L 17.859375 -23.609375 L 21.84375 -3.46875 L 37.625 -16.453125 L 42.6875 -14.625 L 33.125 12 Z M 27.359375 9.90625 "/></g></g></g><g fill="#52439f" fill-opacity="0.4"><g transform="translate(149.534185, 88.527856)"><g><path d="M 10.875 -26.328125 L 17.171875 -24.5625 L 9.53125 2.671875 L 3.234375 0.90625 Z M 10.875 -26.328125 "/></g></g></g><g fill="#52439f" fill-opacity="0.4"><g transform="translate(162.912779, 92.444747)"><g><path d="M 12.234375 3.203125 C 10.054688 2.722656 8.007812 1.960938 6.09375 0.921875 C 4.1875 -0.117188 2.722656 -1.25 1.703125 -2.46875 L 4.953125 -6.796875 C 5.941406 -5.671875 7.191406 -4.664062 8.703125 -3.78125 C 10.222656 -2.894531 11.796875 -2.269531 13.421875 -1.90625 C 15.234375 -1.507812 16.628906 -1.484375 17.609375 -1.828125 C 18.597656 -2.171875 19.191406 -2.789062 19.390625 -3.6875 C 19.535156 -4.351562 19.398438 -4.957031 18.984375 -5.5 C 18.566406 -6.050781 17.988281 -6.546875 17.25 -6.984375 C 16.519531 -7.421875 15.5 -7.953125 14.1875 -8.578125 C 12.195312 -9.535156 10.582031 -10.410156 9.34375 -11.203125 C 8.113281 -12.003906 7.140625 -13.0625 6.421875 -14.375 C 5.710938 -15.6875 5.5625 -17.265625 5.96875 -19.109375 C 6.332031 -20.710938 7.085938 -22.070312 8.234375 -23.1875 C 9.390625 -24.300781 10.925781 -25.039062 12.84375 -25.40625 C 14.757812 -25.78125 16.976562 -25.6875 19.5 -25.125 C 21.269531 -24.738281 22.953125 -24.144531 24.546875 -23.34375 C 26.140625 -22.550781 27.476562 -21.625 28.5625 -20.5625 L 25.515625 -16.15625 C 23.285156 -18.164062 20.894531 -19.453125 18.34375 -20.015625 C 16.5625 -20.410156 15.175781 -20.410156 14.1875 -20.015625 C 13.207031 -19.628906 12.613281 -18.960938 12.40625 -18.015625 C 12.195312 -17.066406 12.53125 -16.253906 13.40625 -15.578125 C 14.289062 -14.910156 15.695312 -14.128906 17.625 -13.234375 C 19.613281 -12.253906 21.222656 -11.363281 22.453125 -10.5625 C 23.691406 -9.769531 24.671875 -8.726562 25.390625 -7.4375 C 26.109375 -6.15625 26.265625 -4.59375 25.859375 -2.75 C 25.503906 -1.175781 24.742188 0.160156 23.578125 1.265625 C 22.410156 2.378906 20.859375 3.117188 18.921875 3.484375 C 16.992188 3.859375 14.765625 3.765625 12.234375 3.203125 Z M 12.234375 3.203125 "/></g></g></g><g fill="#52439f" fill-opacity="0.4"><g transform="translate(188.754926, 97.961227)"><g/></g></g><g fill="#52439f" fill-opacity="0.4"><g transform="translate(200.696937, 100.186645)"><g><path d="M 21.046875 2.28125 L 15.328125 -8.203125 L 7.59375 0.828125 L 0.125 0.015625 L 12.078125 -13.171875 L 3.6875 -28.046875 L 11.078125 -27.234375 L 16.578125 -17.421875 L 23.890625 -25.84375 L 30.9375 -25.078125 L 19.65625 -12.59375 L 28.5625 3.09375 Z M 21.046875 2.28125 "/></g></g></g><g fill="#52439f" fill-opacity="0.4"><g transform="translate(230.414519, 103.392928)"><g><path d="M 31.21875 -27.53125 L 18.296875 0.4375 L 11.84375 0.28125 L 0.328125 -28.28125 L 7.390625 -28.109375 L 15.5 -7.703125 L 24.734375 -27.6875 Z M 31.21875 -27.53125 "/></g></g></g><g fill="#52439f" fill-opacity="0.4"><g transform="translate(261.274457, 103.841735)"><g/></g></g><g fill="#52439f" fill-opacity="0.4"><g transform="translate(273.46082, 103.687606)"><g><path d="M 21.3125 -8.125 L 8.21875 -6.875 L 6.3125 -0.609375 L -0.359375 0.03125 L 9.5 -29.3125 L 15.9375 -29.9375 L 31.21875 -2.984375 L 24.375 -2.328125 Z M 18.78125 -12.875 L 13.296875 -23.234375 L 9.859375 -12.03125 Z M 18.78125 -12.875 "/></g></g></g><g fill="#52439f" fill-opacity="0.4"><g transform="translate(305.390305, 100.628662)"><g><path d="M 23.578125 -33.203125 L 28.796875 -5.40625 L 23.515625 -4.40625 L 6.46875 -18.6875 L 9.640625 -1.8125 L 3.296875 -0.625 L -1.921875 -28.421875 L 3.390625 -29.40625 L 20.390625 -15.140625 L 17.21875 -32.015625 Z M 13.40625 -33.53125 C 12.6875 -33.394531 12.03125 -33.410156 11.4375 -33.578125 C 10.84375 -33.753906 10.175781 -34.019531 9.4375 -34.375 C 8.945312 -34.613281 8.546875 -34.785156 8.234375 -34.890625 C 7.921875 -35.003906 7.632812 -35.035156 7.375 -34.984375 C 6.820312 -34.878906 6.410156 -34.597656 6.140625 -34.140625 C 5.867188 -33.691406 5.785156 -33.109375 5.890625 -32.390625 L 2.765625 -31.796875 C 2.472656 -33.578125 2.644531 -35.070312 3.28125 -36.28125 C 3.925781 -37.488281 4.929688 -38.222656 6.296875 -38.484375 C 6.984375 -38.609375 7.625 -38.582031 8.21875 -38.40625 C 8.820312 -38.226562 9.515625 -37.953125 10.296875 -37.578125 C 10.785156 -37.335938 11.179688 -37.164062 11.484375 -37.0625 C 11.796875 -36.957031 12.082031 -36.929688 12.34375 -36.984375 C 12.875 -37.078125 13.28125 -37.347656 13.5625 -37.796875 C 13.851562 -38.242188 13.945312 -38.804688 13.84375 -39.484375 L 17 -40.0625 C 17.269531 -38.34375 17.082031 -36.882812 16.4375 -35.6875 C 15.789062 -34.5 14.78125 -33.78125 13.40625 -33.53125 Z M 13.40625 -33.53125 "/></g></g></g><g fill="#52439f" fill-opacity="0.4"><g transform="translate(338.636106, 94.365937)"><g><path d="M 16.515625 -4.25 C 13.691406 -3.4375 10.972656 -3.3125 8.359375 -3.875 C 5.742188 -4.445312 3.488281 -5.613281 1.59375 -7.375 C -0.300781 -9.144531 -1.628906 -11.363281 -2.390625 -14.03125 C -3.160156 -16.6875 -3.210938 -19.269531 -2.546875 -21.78125 C -1.878906 -24.289062 -0.59375 -26.476562 1.3125 -28.34375 C 3.21875 -30.207031 5.582031 -31.546875 8.40625 -32.359375 C 11.226562 -33.171875 13.941406 -33.296875 16.546875 -32.734375 C 19.160156 -32.171875 21.421875 -31.003906 23.328125 -29.234375 C 25.242188 -27.460938 26.585938 -25.25 27.359375 -22.59375 C 28.117188 -19.925781 28.15625 -17.335938 27.46875 -14.828125 C 26.789062 -12.328125 25.5 -10.140625 23.59375 -8.265625 C 21.695312 -6.398438 19.335938 -5.0625 16.515625 -4.25 Z M 14.96875 -9.609375 C 16.582031 -10.078125 17.925781 -10.863281 19 -11.96875 C 20.082031 -13.082031 20.800781 -14.40625 21.15625 -15.9375 C 21.519531 -17.46875 21.460938 -19.078125 20.984375 -20.765625 C 20.492188 -22.441406 19.6875 -23.832031 18.5625 -24.9375 C 17.445312 -26.050781 16.132812 -26.789062 14.625 -27.15625 C 13.125 -27.519531 11.566406 -27.46875 9.953125 -27 C 8.359375 -26.539062 7.019531 -25.753906 5.9375 -24.640625 C 4.851562 -23.535156 4.128906 -22.210938 3.765625 -20.671875 C 3.410156 -19.140625 3.476562 -17.535156 3.96875 -15.859375 C 4.445312 -14.171875 5.242188 -12.773438 6.359375 -11.671875 C 7.484375 -10.566406 8.800781 -9.832031 10.3125 -9.46875 C 11.820312 -9.101562 13.375 -9.148438 14.96875 -9.609375 Z M 14.96875 -9.609375 "/></g></g></g><g fill="#52439f" fill-opacity="0.4"><g transform="translate(372.352104, 84.423637)"><g><path d="M 11.984375 -4.0625 C 9.898438 -3.269531 7.773438 -2.78125 5.609375 -2.59375 C 3.441406 -2.40625 1.585938 -2.539062 0.046875 -3 L 0.375 -8.40625 C 1.820312 -8.007812 3.421875 -7.859375 5.171875 -7.953125 C 6.929688 -8.046875 8.585938 -8.390625 10.140625 -8.984375 C 11.878906 -9.648438 13.0625 -10.398438 13.6875 -11.234375 C 14.320312 -12.066406 14.476562 -12.910156 14.15625 -13.765625 C 13.90625 -14.398438 13.457031 -14.828125 12.8125 -15.046875 C 12.164062 -15.273438 11.410156 -15.367188 10.546875 -15.328125 C 9.679688 -15.296875 8.535156 -15.179688 7.109375 -14.984375 C 4.921875 -14.679688 3.09375 -14.519531 1.625 -14.5 C 0.15625 -14.488281 -1.234375 -14.835938 -2.546875 -15.546875 C -3.867188 -16.253906 -4.863281 -17.488281 -5.53125 -19.25 C -6.125 -20.78125 -6.242188 -22.328125 -5.890625 -23.890625 C -5.535156 -25.453125 -4.660156 -26.914062 -3.265625 -28.28125 C -1.878906 -29.65625 0.015625 -30.800781 2.421875 -31.71875 C 4.117188 -32.375 5.847656 -32.804688 7.609375 -33.015625 C 9.378906 -33.234375 11.007812 -33.195312 12.5 -32.90625 L 12.390625 -27.546875 C 9.421875 -27.992188 6.71875 -27.753906 4.28125 -26.828125 C 2.5625 -26.171875 1.398438 -25.40625 0.796875 -24.53125 C 0.191406 -23.664062 0.0625 -22.78125 0.40625 -21.875 C 0.75 -20.96875 1.472656 -20.472656 2.578125 -20.390625 C 3.691406 -20.316406 5.300781 -20.4375 7.40625 -20.75 C 9.613281 -21.039062 11.445312 -21.191406 12.90625 -21.203125 C 14.375 -21.210938 15.765625 -20.878906 17.078125 -20.203125 C 18.390625 -19.523438 19.382812 -18.304688 20.0625 -16.546875 C 20.632812 -15.035156 20.734375 -13.492188 20.359375 -11.921875 C 19.992188 -10.359375 19.109375 -8.890625 17.703125 -7.515625 C 16.304688 -6.140625 14.398438 -4.988281 11.984375 -4.0625 Z M 11.984375 -4.0625 "/></g></g></g><g fill="#ffffff" fill-opacity="1"><g transform="translate(110.45475, 73.772663)"><g><path d="M 27.359375 9.90625 L 33.09375 -6.0625 L 20.515625 4.25 L 17.734375 3.234375 L 14.59375 -12.390625 L 8.9375 3.234375 L 3.15625 1.140625 L 12.78125 -25.453125 L 17.859375 -23.609375 L 21.84375 -3.46875 L 37.625 -16.453125 L 42.6875 -14.625 L 33.125 12 Z M 27.359375 9.90625 "/></g></g></g><g fill="#ffffff" fill-opacity="1"><g transform="translate(147.748175, 86.741831)"><g><path d="M 10.875 -26.328125 L 17.171875 -24.5625 L 9.53125 2.671875 L 3.234375 0.90625 Z M 10.875 -26.328125 "/></g></g></g><g fill="#ffffff" fill-opacity="1"><g transform="translate(161.126769, 90.658728)"><g><path d="M 12.234375 3.203125 C 10.054688 2.722656 8.007812 1.960938 6.09375 0.921875 C 4.1875 -0.117188 2.722656 -1.25 1.703125 -2.46875 L 4.953125 -6.796875 C 5.941406 -5.671875 7.191406 -4.664062 8.703125 -3.78125 C 10.222656 -2.894531 11.796875 -2.269531 13.421875 -1.90625 C 15.234375 -1.507812 16.628906 -1.484375 17.609375 -1.828125 C 18.597656 -2.171875 19.191406 -2.789062 19.390625 -3.6875 C 19.535156 -4.351562 19.398438 -4.957031 18.984375 -5.5 C 18.566406 -6.050781 17.988281 -6.546875 17.25 -6.984375 C 16.519531 -7.421875 15.5 -7.953125 14.1875 -8.578125 C 12.195312 -9.535156 10.582031 -10.410156 9.34375 -11.203125 C 8.113281 -12.003906 7.140625 -13.0625 6.421875 -14.375 C 5.710938 -15.6875 5.5625 -17.265625 5.96875 -19.109375 C 6.332031 -20.710938 7.085938 -22.070312 8.234375 -23.1875 C 9.390625 -24.300781 10.925781 -25.039062 12.84375 -25.40625 C 14.757812 -25.78125 16.976562 -25.6875 19.5 -25.125 C 21.269531 -24.738281 22.953125 -24.144531 24.546875 -23.34375 C 26.140625 -22.550781 27.476562 -21.625 28.5625 -20.5625 L 25.515625 -16.15625 C 23.285156 -18.164062 20.894531 -19.453125 18.34375 -20.015625 C 16.5625 -20.410156 15.175781 -20.410156 14.1875 -20.015625 C 13.207031 -19.628906 12.613281 -18.960938 12.40625 -18.015625 C 12.195312 -17.066406 12.53125 -16.253906 13.40625 -15.578125 C 14.289062 -14.910156 15.695312 -14.128906 17.625 -13.234375 C 19.613281 -12.253906 21.222656 -11.363281 22.453125 -10.5625 C 23.691406 -9.769531 24.671875 -8.726562 25.390625 -7.4375 C 26.109375 -6.15625 26.265625 -4.59375 25.859375 -2.75 C 25.503906 -1.175781 24.742188 0.160156 23.578125 1.265625 C 22.410156 2.378906 20.859375 3.117188 18.921875 3.484375 C 16.992188 3.859375 14.765625 3.765625 12.234375 3.203125 Z M 12.234375 3.203125 "/></g></g></g><g fill="#ffffff" fill-opacity="1"><g transform="translate(186.968913, 96.175204)"><g/></g></g><g fill="#ffffff" fill-opacity="1"><g transform="translate(198.910927, 98.40062)"><g><path d="M 21.046875 2.28125 L 15.328125 -8.203125 L 7.59375 0.828125 L 0.125 0.015625 L 12.078125 -13.171875 L 3.6875 -28.046875 L 11.078125 -27.234375 L 16.578125 -17.421875 L 23.890625 -25.84375 L 30.9375 -25.078125 L 19.65625 -12.59375 L 28.5625 3.09375 Z M 21.046875 2.28125 "/></g></g></g><g fill="#ffffff" fill-opacity="1"><g transform="translate(228.628509, 101.606901)"><g><path d="M 31.21875 -27.53125 L 18.296875 0.4375 L 11.84375 0.28125 L 0.328125 -28.28125 L 7.390625 -28.109375 L 15.5 -7.703125 L 24.734375 -27.6875 Z M 31.21875 -27.53125 "/></g></g></g><g fill="#ffffff" fill-opacity="1"><g transform="translate(259.488461, 102.05571)"><g/></g></g><g fill="#ffffff" fill-opacity="1"><g transform="translate(271.674793, 101.901589)"><g><path d="M 21.3125 -8.125 L 8.21875 -6.875 L 6.3125 -0.609375 L -0.359375 0.03125 L 9.5 -29.3125 L 15.9375 -29.9375 L 31.21875 -2.984375 L 24.375 -2.328125 Z M 18.78125 -12.875 L 13.296875 -23.234375 L 9.859375 -12.03125 Z M 18.78125 -12.875 "/></g></g></g><g fill="#ffffff" fill-opacity="1"><g transform="translate(303.604309, 98.842643)"><g><path d="M 23.578125 -33.203125 L 28.796875 -5.40625 L 23.515625 -4.40625 L 6.46875 -18.6875 L 9.640625 -1.8125 L 3.296875 -0.625 L -1.921875 -28.421875 L 3.390625 -29.40625 L 20.390625 -15.140625 L 17.21875 -32.015625 Z M 13.40625 -33.53125 C 12.6875 -33.394531 12.03125 -33.410156 11.4375 -33.578125 C 10.84375 -33.753906 10.175781 -34.019531 9.4375 -34.375 C 8.945312 -34.613281 8.546875 -34.785156 8.234375 -34.890625 C 7.921875 -35.003906 7.632812 -35.035156 7.375 -34.984375 C 6.820312 -34.878906 6.410156 -34.597656 6.140625 -34.140625 C 5.867188 -33.691406 5.785156 -33.109375 5.890625 -32.390625 L 2.765625 -31.796875 C 2.472656 -33.578125 2.644531 -35.070312 3.28125 -36.28125 C 3.925781 -37.488281 4.929688 -38.222656 6.296875 -38.484375 C 6.984375 -38.609375 7.625 -38.582031 8.21875 -38.40625 C 8.820312 -38.226562 9.515625 -37.953125 10.296875 -37.578125 C 10.785156 -37.335938 11.179688 -37.164062 11.484375 -37.0625 C 11.796875 -36.957031 12.082031 -36.929688 12.34375 -36.984375 C 12.875 -37.078125 13.28125 -37.347656 13.5625 -37.796875 C 13.851562 -38.242188 13.945312 -38.804688 13.84375 -39.484375 L 17 -40.0625 C 17.269531 -38.34375 17.082031 -36.882812 16.4375 -35.6875 C 15.789062 -34.5 14.78125 -33.78125 13.40625 -33.53125 Z M 13.40625 -33.53125 "/></g></g></g><g fill="#ffffff" fill-opacity="1"><g transform="translate(336.850081, 92.579914)"><g><path d="M 16.515625 -4.25 C 13.691406 -3.4375 10.972656 -3.3125 8.359375 -3.875 C 5.742188 -4.445312 3.488281 -5.613281 1.59375 -7.375 C -0.300781 -9.144531 -1.628906 -11.363281 -2.390625 -14.03125 C -3.160156 -16.6875 -3.210938 -19.269531 -2.546875 -21.78125 C -1.878906 -24.289062 -0.59375 -26.476562 1.3125 -28.34375 C 3.21875 -30.207031 5.582031 -31.546875 8.40625 -32.359375 C 11.226562 -33.171875 13.941406 -33.296875 16.546875 -32.734375 C 19.160156 -32.171875 21.421875 -31.003906 23.328125 -29.234375 C 25.242188 -27.460938 26.585938 -25.25 27.359375 -22.59375 C 28.117188 -19.925781 28.15625 -17.335938 27.46875 -14.828125 C 26.789062 -12.328125 25.5 -10.140625 23.59375 -8.265625 C 21.695312 -6.398438 19.335938 -5.0625 16.515625 -4.25 Z M 14.96875 -9.609375 C 16.582031 -10.078125 17.925781 -10.863281 19 -11.96875 C 20.082031 -13.082031 20.800781 -14.40625 21.15625 -15.9375 C 21.519531 -17.46875 21.460938 -19.078125 20.984375 -20.765625 C 20.492188 -22.441406 19.6875 -23.832031 18.5625 -24.9375 C 17.445312 -26.050781 16.132812 -26.789062 14.625 -27.15625 C 13.125 -27.519531 11.566406 -27.46875 9.953125 -27 C 8.359375 -26.539062 7.019531 -25.753906 5.9375 -24.640625 C 4.851562 -23.535156 4.128906 -22.210938 3.765625 -20.671875 C 3.410156 -19.140625 3.476562 -17.535156 3.96875 -15.859375 C 4.445312 -14.171875 5.242188 -12.773438 6.359375 -11.671875 C 7.484375 -10.566406 8.800781 -9.832031 10.3125 -9.46875 C 11.820312 -9.101562 13.375 -9.148438 14.96875 -9.609375 Z M 14.96875 -9.609375 "/></g></g></g><g fill="#ffffff" fill-opacity="1"><g transform="translate(370.566108, 82.637612)"><g><path d="M 11.984375 -4.0625 C 9.898438 -3.269531 7.773438 -2.78125 5.609375 -2.59375 C 3.441406 -2.40625 1.585938 -2.539062 0.046875 -3 L 0.375 -8.40625 C 1.820312 -8.007812 3.421875 -7.859375 5.171875 -7.953125 C 6.929688 -8.046875 8.585938 -8.390625 10.140625 -8.984375 C 11.878906 -9.648438 13.0625 -10.398438 13.6875 -11.234375 C 14.320312 -12.066406 14.476562 -12.910156 14.15625 -13.765625 C 13.90625 -14.398438 13.457031 -14.828125 12.8125 -15.046875 C 12.164062 -15.273438 11.410156 -15.367188 10.546875 -15.328125 C 9.679688 -15.296875 8.535156 -15.179688 7.109375 -14.984375 C 4.921875 -14.679688 3.09375 -14.519531 1.625 -14.5 C 0.15625 -14.488281 -1.234375 -14.835938 -2.546875 -15.546875 C -3.867188 -16.253906 -4.863281 -17.488281 -5.53125 -19.25 C -6.125 -20.78125 -6.242188 -22.328125 -5.890625 -23.890625 C -5.535156 -25.453125 -4.660156 -26.914062 -3.265625 -28.28125 C -1.878906 -29.65625 0.015625 -30.800781 2.421875 -31.71875 C 4.117188 -32.375 5.847656 -32.804688 7.609375 -33.015625 C 9.378906 -33.234375 11.007812 -33.195312 12.5 -32.90625 L 12.390625 -27.546875 C 9.421875 -27.992188 6.71875 -27.753906 4.28125 -26.828125 C 2.5625 -26.171875 1.398438 -25.40625 0.796875 -24.53125 C 0.191406 -23.664062 0.0625 -22.78125 0.40625 -21.875 C 0.75 -20.96875 1.472656 -20.472656 2.578125 -20.390625 C 3.691406 -20.316406 5.300781 -20.4375 7.40625 -20.75 C 9.613281 -21.039062 11.445312 -21.191406 12.90625 -21.203125 C 14.375 -21.210938 15.765625 -20.878906 17.078125 -20.203125 C 18.390625 -19.523438 19.382812 -18.304688 20.0625 -16.546875 C 20.632812 -15.035156 20.734375 -13.492188 20.359375 -11.921875 C 19.992188 -10.359375 19.109375 -8.890625 17.703125 -7.515625 C 16.304688 -6.140625 14.398438 -4.988281 11.984375 -4.0625 Z M 11.984375 -4.0625 "/></g></g></g></svg>