<svg xmlns="http://www.w3.org/2000/svg" xmlns:xlink="http://www.w3.org/1999/xlink" width="480" zoomAndPan="magnify" viewBox="0 0 360 503.999982" height="672" preserveAspectRatio="xMidYMid meet" version="1.0"><defs><g/><clipPath id="5410b42b45"><path d="M 255 197 L 310.460938 197 L 310.460938 252 L 255 252 Z M 255 197 " clip-rule="nonzero"/></clipPath><clipPath id="41e130c17d"><path d="M 49.460938 197 L 105 197 L 105 252 L 49.460938 252 Z M 49.460938 197 " clip-rule="nonzero"/></clipPath><clipPath id="68139654b6"><path d="M 79 193.519531 L 281 193.519531 L 281 251 L 79 251 Z M 79 193.519531 " clip-rule="nonzero"/></clipPath></defs><g clip-path="url(#5410b42b45)"><path fill="#ccb13b" d="M 294.175781 197.609375 C 281.582031 202.828125 268.722656 207.144531 255.683594 210.566406 C 259.296875 224.34375 262.914062 238.125 266.523438 251.90625 C 281.429688 247.996094 296.132812 243.058594 310.53125 237.09375 C 304.5 231.882812 298.660156 226.53125 293.019531 221.046875 C 293.625 213.203125 294.011719 205.386719 294.175781 197.609375 Z M 294.175781 197.609375 " fill-opacity="1" fill-rule="nonzero"/></g><g clip-path="url(#41e130c17d)"><path fill="#ccb13b" d="M 65.816406 197.609375 C 78.40625 202.828125 91.269531 207.144531 104.308594 210.566406 C 100.691406 224.34375 97.078125 238.125 93.464844 251.902344 C 78.5625 247.996094 63.859375 243.058594 49.460938 237.09375 C 55.488281 231.882812 61.328125 226.527344 66.972656 221.046875 C 66.367188 213.203125 65.980469 205.386719 65.816406 197.609375 Z M 65.816406 197.609375 " fill-opacity="1" fill-rule="nonzero"/></g><path fill="#8f7d2c" d="M 266.523438 251.902344 C 271.609375 246.246094 276.433594 240.472656 280.996094 234.601562 C 275.148438 236.492188 269.261719 238.210938 263.34375 239.765625 C 264.402344 243.8125 265.464844 247.859375 266.523438 251.902344 Z M 266.523438 251.902344 " fill-opacity="1" fill-rule="nonzero"/><path fill="#8f7d2c" d="M 93.464844 251.902344 C 88.378906 246.246094 83.554688 240.472656 78.992188 234.601562 C 84.839844 236.492188 90.726562 238.210938 96.648438 239.765625 C 95.585938 243.8125 94.527344 247.859375 93.464844 251.902344 Z M 93.464844 251.902344 " fill-opacity="1" fill-rule="nonzero"/><g clip-path="url(#68139654b6)"><path fill="#e8c940" d="M 92.234375 193.609375 C 87.855469 207.164062 83.476562 220.722656 79.09375 234.277344 C 144.679688 255.46875 215.308594 255.46875 280.890625 234.277344 C 276.511719 220.722656 272.132812 207.167969 267.753906 193.609375 C 210.710938 212.042969 149.28125 212.039062 92.234375 193.609375 Z M 92.234375 193.609375 " fill-opacity="1" fill-rule="nonzero"/></g><g fill="#52439f" fill-opacity="0.4"><g transform="translate(105.763031, 224.649445)"><g><path d="M 14.53125 5.265625 L 17.578125 -3.234375 L 10.90625 2.25 L 9.4375 1.71875 L 7.75 -6.578125 L 4.75 1.71875 L 1.671875 0.609375 L 6.78125 -13.53125 L 9.484375 -12.5625 L 11.609375 -1.84375 L 20 -8.75 L 22.671875 -7.78125 L 17.59375 6.375 Z M 14.53125 5.265625 "/></g></g></g><g fill="#52439f" fill-opacity="0.4"><g transform="translate(125.572446, 231.538383)"><g><path d="M 5.78125 -13.984375 L 9.125 -13.046875 L 5.0625 1.421875 L 1.71875 0.484375 Z M 5.78125 -13.984375 "/></g></g></g><g fill="#52439f" fill-opacity="0.4"><g transform="translate(132.67887, 233.618936)"><g><path d="M 6.515625 1.703125 C 5.359375 1.441406 4.269531 1.035156 3.25 0.484375 C 2.238281 -0.0664062 1.457031 -0.671875 0.90625 -1.328125 L 2.625 -3.609375 C 3.15625 -3.015625 3.820312 -2.476562 4.625 -2 C 5.425781 -1.53125 6.257812 -1.203125 7.125 -1.015625 C 8.09375 -0.796875 8.835938 -0.773438 9.359375 -0.953125 C 9.878906 -1.140625 10.191406 -1.472656 10.296875 -1.953125 C 10.378906 -2.304688 10.3125 -2.628906 10.09375 -2.921875 C 9.875 -3.210938 9.566406 -3.472656 9.171875 -3.703125 C 8.785156 -3.929688 8.238281 -4.21875 7.53125 -4.5625 C 6.476562 -5.0625 5.625 -5.523438 4.96875 -5.953125 C 4.3125 -6.378906 3.796875 -6.941406 3.421875 -7.640625 C 3.046875 -8.335938 2.96875 -9.175781 3.1875 -10.15625 C 3.375 -11.007812 3.769531 -11.734375 4.375 -12.328125 C 4.988281 -12.921875 5.804688 -13.3125 6.828125 -13.5 C 7.847656 -13.695312 9.03125 -13.648438 10.375 -13.359375 C 11.3125 -13.148438 12.203125 -12.832031 13.046875 -12.40625 C 13.890625 -11.988281 14.597656 -11.492188 15.171875 -10.921875 L 13.5625 -8.578125 C 12.375 -9.648438 11.101562 -10.335938 9.75 -10.640625 C 8.789062 -10.847656 8.050781 -10.847656 7.53125 -10.640625 C 7.007812 -10.429688 6.691406 -10.082031 6.578125 -9.59375 C 6.472656 -9.082031 6.65625 -8.644531 7.125 -8.28125 C 7.59375 -7.914062 8.335938 -7.5 9.359375 -7.03125 C 10.429688 -6.519531 11.289062 -6.050781 11.9375 -5.625 C 12.59375 -5.195312 13.109375 -4.640625 13.484375 -3.953125 C 13.867188 -3.273438 13.953125 -2.445312 13.734375 -1.46875 C 13.546875 -0.625 13.140625 0.0859375 12.515625 0.671875 C 11.898438 1.253906 11.082031 1.644531 10.0625 1.84375 C 9.039062 2.050781 7.859375 2.003906 6.515625 1.703125 Z M 6.515625 1.703125 "/></g></g></g><g fill="#52439f" fill-opacity="0.4"><g transform="translate(146.405641, 236.549159)"><g/></g></g><g fill="#52439f" fill-opacity="0.4"><g transform="translate(152.748964, 237.731259)"><g><path d="M 11.1875 1.21875 L 8.140625 -4.359375 L 4.03125 0.4375 L 0.0625 0 L 6.421875 -6.984375 L 1.96875 -14.90625 L 5.890625 -14.46875 L 8.796875 -9.265625 L 12.703125 -13.734375 L 16.4375 -13.328125 L 10.4375 -6.671875 L 15.171875 1.640625 Z M 11.1875 1.21875 "/></g></g></g><g fill="#52439f" fill-opacity="0.4"><g transform="translate(168.534284, 239.434371)"><g><path d="M 16.59375 -14.640625 L 9.71875 0.234375 L 6.296875 0.15625 L 0.171875 -15.03125 L 3.921875 -14.9375 L 8.25 -4.09375 L 13.140625 -14.71875 Z M 16.59375 -14.640625 "/></g></g></g><g fill="#52439f" fill-opacity="0.4"><g transform="translate(184.926405, 239.672744)"><g/></g></g><g fill="#52439f" fill-opacity="0.4"><g transform="translate(191.399506, 239.590896)"><g><path d="M 11.3125 -4.3125 L 4.375 -3.65625 L 3.359375 -0.328125 L -0.1875 0.015625 L 5.046875 -15.59375 L 8.46875 -15.90625 L 16.578125 -1.578125 L 12.953125 -1.234375 Z M 9.96875 -6.828125 L 7.0625 -12.34375 L 5.21875 -6.375 Z M 9.96875 -6.828125 "/></g></g></g><g fill="#52439f" fill-opacity="0.4"><g transform="translate(208.359734, 237.966048)"><g><path d="M 12.53125 -17.640625 L 15.296875 -2.875 L 12.484375 -2.34375 L 3.4375 -9.9375 L 5.125 -0.96875 L 1.75 -0.328125 L -1.015625 -15.09375 L 1.8125 -15.625 L 10.828125 -8.046875 L 9.15625 -17 Z M 7.125 -17.796875 C 6.738281 -17.734375 6.382812 -17.75 6.0625 -17.84375 C 5.75 -17.9375 5.394531 -18.078125 5 -18.265625 C 4.738281 -18.390625 4.523438 -18.476562 4.359375 -18.53125 C 4.203125 -18.59375 4.050781 -18.613281 3.90625 -18.59375 C 3.613281 -18.539062 3.394531 -18.390625 3.25 -18.140625 C 3.101562 -17.898438 3.0625 -17.59375 3.125 -17.21875 L 1.453125 -16.90625 C 1.304688 -17.84375 1.398438 -18.628906 1.734375 -19.265625 C 2.066406 -19.910156 2.601562 -20.300781 3.34375 -20.4375 C 3.707031 -20.507812 4.046875 -20.492188 4.359375 -20.390625 C 4.679688 -20.296875 5.050781 -20.15625 5.46875 -19.96875 C 5.726562 -19.84375 5.9375 -19.75 6.09375 -19.6875 C 6.25 -19.625 6.398438 -19.609375 6.546875 -19.640625 C 6.828125 -19.691406 7.046875 -19.835938 7.203125 -20.078125 C 7.359375 -20.316406 7.410156 -20.613281 7.359375 -20.96875 L 9.03125 -21.28125 C 9.164062 -20.363281 9.0625 -19.585938 8.71875 -18.953125 C 8.375 -18.316406 7.84375 -17.929688 7.125 -17.796875 Z M 7.125 -17.796875 "/></g></g></g><g fill="#52439f" fill-opacity="0.4"><g transform="translate(226.019151, 234.639443)"><g><path d="M 8.765625 -2.28125 C 7.265625 -1.84375 5.820312 -1.773438 4.4375 -2.078125 C 3.0625 -2.378906 1.867188 -2.992188 0.859375 -3.921875 C -0.148438 -4.859375 -0.859375 -6.035156 -1.265625 -7.453125 C -1.671875 -8.867188 -1.695312 -10.242188 -1.34375 -11.578125 C -0.988281 -12.910156 -0.304688 -14.070312 0.703125 -15.0625 C 1.710938 -16.050781 2.96875 -16.765625 4.46875 -17.203125 C 5.96875 -17.628906 7.410156 -17.691406 8.796875 -17.390625 C 10.179688 -17.085938 11.378906 -16.46875 12.390625 -15.53125 C 13.410156 -14.59375 14.125 -13.414062 14.53125 -12 C 14.9375 -10.582031 14.957031 -9.207031 14.59375 -7.875 C 14.238281 -6.550781 13.550781 -5.394531 12.53125 -4.40625 C 11.519531 -3.414062 10.265625 -2.707031 8.765625 -2.28125 Z M 7.953125 -5.109375 C 8.804688 -5.347656 9.519531 -5.757812 10.09375 -6.34375 C 10.675781 -6.9375 11.0625 -7.644531 11.25 -8.46875 C 11.445312 -9.289062 11.414062 -10.144531 11.15625 -11.03125 C 10.894531 -11.925781 10.460938 -12.664062 9.859375 -13.25 C 9.265625 -13.832031 8.566406 -14.222656 7.765625 -14.421875 C 6.972656 -14.617188 6.148438 -14.597656 5.296875 -14.359375 C 4.453125 -14.109375 3.738281 -13.6875 3.15625 -13.09375 C 2.570312 -12.5 2.1875 -11.796875 2 -10.984375 C 1.8125 -10.171875 1.847656 -9.316406 2.109375 -8.421875 C 2.367188 -7.535156 2.796875 -6.796875 3.390625 -6.203125 C 3.984375 -5.609375 4.679688 -5.210938 5.484375 -5.015625 C 6.285156 -4.828125 7.109375 -4.859375 7.953125 -5.109375 Z M 7.953125 -5.109375 "/></g></g></g><g fill="#52439f" fill-opacity="0.4"><g transform="translate(243.928338, 229.358304)"><g><path d="M 6.375 -2.171875 C 5.257812 -1.742188 4.125 -1.476562 2.96875 -1.375 C 1.820312 -1.28125 0.835938 -1.359375 0.015625 -1.609375 L 0.1875 -4.46875 C 0.957031 -4.257812 1.804688 -4.175781 2.734375 -4.21875 C 3.671875 -4.269531 4.554688 -4.453125 5.390625 -4.765625 C 6.304688 -5.117188 6.929688 -5.519531 7.265625 -5.96875 C 7.609375 -6.414062 7.691406 -6.863281 7.515625 -7.3125 C 7.390625 -7.65625 7.15625 -7.882812 6.8125 -8 C 6.46875 -8.113281 6.066406 -8.160156 5.609375 -8.140625 C 5.148438 -8.117188 4.539062 -8.054688 3.78125 -7.953125 C 2.613281 -7.804688 1.640625 -7.722656 0.859375 -7.703125 C 0.0859375 -7.691406 -0.644531 -7.875 -1.34375 -8.25 C -2.050781 -8.632812 -2.585938 -9.296875 -2.953125 -10.234375 C -3.265625 -11.054688 -3.328125 -11.878906 -3.140625 -12.703125 C -2.953125 -13.535156 -2.488281 -14.3125 -1.75 -15.03125 C -1.007812 -15.75 0 -16.351562 1.28125 -16.84375 C 2.175781 -17.1875 3.09375 -17.414062 4.03125 -17.53125 C 4.976562 -17.644531 5.847656 -17.628906 6.640625 -17.484375 L 6.578125 -14.625 C 5.003906 -14.875 3.566406 -14.75 2.265625 -14.25 C 1.359375 -13.90625 0.742188 -13.5 0.421875 -13.03125 C 0.109375 -12.570312 0.0390625 -12.101562 0.21875 -11.625 C 0.40625 -11.144531 0.789062 -10.882812 1.375 -10.84375 C 1.96875 -10.800781 2.828125 -10.859375 3.953125 -11.015625 C 5.109375 -11.179688 6.070312 -11.269531 6.84375 -11.28125 C 7.625 -11.289062 8.363281 -11.113281 9.0625 -10.75 C 9.769531 -10.382812 10.300781 -9.734375 10.65625 -8.796875 C 10.96875 -7.992188 11.023438 -7.175781 10.828125 -6.34375 C 10.628906 -5.507812 10.15625 -4.726562 9.40625 -4 C 8.664062 -3.269531 7.65625 -2.660156 6.375 -2.171875 Z M 6.375 -2.171875 "/></g></g></g><g fill="#ffffff" fill-opacity="1"><g transform="translate(104.81434, 223.700754)"><g><path d="M 14.53125 5.265625 L 17.578125 -3.234375 L 10.90625 2.25 L 9.4375 1.71875 L 7.75 -6.578125 L 4.75 1.71875 L 1.671875 0.609375 L 6.78125 -13.53125 L 9.484375 -12.5625 L 11.609375 -1.84375 L 20 -8.75 L 22.671875 -7.78125 L 17.59375 6.375 Z M 14.53125 5.265625 "/></g></g></g><g fill="#ffffff" fill-opacity="1"><g transform="translate(124.623755, 230.589692)"><g><path d="M 5.78125 -13.984375 L 9.125 -13.046875 L 5.0625 1.421875 L 1.71875 0.484375 Z M 5.78125 -13.984375 "/></g></g></g><g fill="#ffffff" fill-opacity="1"><g transform="translate(131.730162, 232.670245)"><g><path d="M 6.515625 1.703125 C 5.359375 1.441406 4.269531 1.035156 3.25 0.484375 C 2.238281 -0.0664062 1.457031 -0.671875 0.90625 -1.328125 L 2.625 -3.609375 C 3.15625 -3.015625 3.820312 -2.476562 4.625 -2 C 5.425781 -1.53125 6.257812 -1.203125 7.125 -1.015625 C 8.09375 -0.796875 8.835938 -0.773438 9.359375 -0.953125 C 9.878906 -1.140625 10.191406 -1.472656 10.296875 -1.953125 C 10.378906 -2.304688 10.3125 -2.628906 10.09375 -2.921875 C 9.875 -3.210938 9.566406 -3.472656 9.171875 -3.703125 C 8.785156 -3.929688 8.238281 -4.21875 7.53125 -4.5625 C 6.476562 -5.0625 5.625 -5.523438 4.96875 -5.953125 C 4.3125 -6.378906 3.796875 -6.941406 3.421875 -7.640625 C 3.046875 -8.335938 2.96875 -9.175781 3.1875 -10.15625 C 3.375 -11.007812 3.769531 -11.734375 4.375 -12.328125 C 4.988281 -12.921875 5.804688 -13.3125 6.828125 -13.5 C 7.847656 -13.695312 9.03125 -13.648438 10.375 -13.359375 C 11.3125 -13.148438 12.203125 -12.832031 13.046875 -12.40625 C 13.890625 -11.988281 14.597656 -11.492188 15.171875 -10.921875 L 13.5625 -8.578125 C 12.375 -9.648438 11.101562 -10.335938 9.75 -10.640625 C 8.789062 -10.847656 8.050781 -10.847656 7.53125 -10.640625 C 7.007812 -10.429688 6.691406 -10.082031 6.578125 -9.59375 C 6.472656 -9.082031 6.65625 -8.644531 7.125 -8.28125 C 7.59375 -7.914062 8.335938 -7.5 9.359375 -7.03125 C 10.429688 -6.519531 11.289062 -6.050781 11.9375 -5.625 C 12.59375 -5.195312 13.109375 -4.640625 13.484375 -3.953125 C 13.867188 -3.273438 13.953125 -2.445312 13.734375 -1.46875 C 13.546875 -0.625 13.140625 0.0859375 12.515625 0.671875 C 11.898438 1.253906 11.082031 1.644531 10.0625 1.84375 C 9.039062 2.050781 7.859375 2.003906 6.515625 1.703125 Z M 6.515625 1.703125 "/></g></g></g><g fill="#ffffff" fill-opacity="1"><g transform="translate(145.45695, 235.600468)"><g/></g></g><g fill="#ffffff" fill-opacity="1"><g transform="translate(151.800273, 236.782568)"><g><path d="M 11.1875 1.21875 L 8.140625 -4.359375 L 4.03125 0.4375 L 0.0625 0 L 6.421875 -6.984375 L 1.96875 -14.90625 L 5.890625 -14.46875 L 8.796875 -9.265625 L 12.703125 -13.734375 L 16.4375 -13.328125 L 10.4375 -6.671875 L 15.171875 1.640625 Z M 11.1875 1.21875 "/></g></g></g><g fill="#ffffff" fill-opacity="1"><g transform="translate(167.585593, 238.48568)"><g><path d="M 16.59375 -14.640625 L 9.71875 0.234375 L 6.296875 0.15625 L 0.171875 -15.03125 L 3.921875 -14.9375 L 8.25 -4.09375 L 13.140625 -14.71875 Z M 16.59375 -14.640625 "/></g></g></g><g fill="#ffffff" fill-opacity="1"><g transform="translate(183.977714, 238.724053)"><g/></g></g><g fill="#ffffff" fill-opacity="1"><g transform="translate(190.450813, 238.642204)"><g><path d="M 11.3125 -4.3125 L 4.375 -3.65625 L 3.359375 -0.328125 L -0.1875 0.015625 L 5.046875 -15.59375 L 8.46875 -15.90625 L 16.578125 -1.578125 L 12.953125 -1.234375 Z M 9.96875 -6.828125 L 7.0625 -12.34375 L 5.21875 -6.375 Z M 9.96875 -6.828125 "/></g></g></g><g fill="#ffffff" fill-opacity="1"><g transform="translate(207.411043, 237.017342)"><g><path d="M 12.53125 -17.640625 L 15.296875 -2.875 L 12.484375 -2.34375 L 3.4375 -9.9375 L 5.125 -0.96875 L 1.75 -0.328125 L -1.015625 -15.09375 L 1.8125 -15.625 L 10.828125 -8.046875 L 9.15625 -17 Z M 7.125 -17.796875 C 6.738281 -17.734375 6.382812 -17.75 6.0625 -17.84375 C 5.75 -17.9375 5.394531 -18.078125 5 -18.265625 C 4.738281 -18.390625 4.523438 -18.476562 4.359375 -18.53125 C 4.203125 -18.59375 4.050781 -18.613281 3.90625 -18.59375 C 3.613281 -18.539062 3.394531 -18.390625 3.25 -18.140625 C 3.101562 -17.898438 3.0625 -17.59375 3.125 -17.21875 L 1.453125 -16.90625 C 1.304688 -17.84375 1.398438 -18.628906 1.734375 -19.265625 C 2.066406 -19.910156 2.601562 -20.300781 3.34375 -20.4375 C 3.707031 -20.507812 4.046875 -20.492188 4.359375 -20.390625 C 4.679688 -20.296875 5.050781 -20.15625 5.46875 -19.96875 C 5.726562 -19.84375 5.9375 -19.75 6.09375 -19.6875 C 6.25 -19.625 6.398438 -19.609375 6.546875 -19.640625 C 6.828125 -19.691406 7.046875 -19.835938 7.203125 -20.078125 C 7.359375 -20.316406 7.410156 -20.613281 7.359375 -20.96875 L 9.03125 -21.28125 C 9.164062 -20.363281 9.0625 -19.585938 8.71875 -18.953125 C 8.375 -18.316406 7.84375 -17.929688 7.125 -17.796875 Z M 7.125 -17.796875 "/></g></g></g><g fill="#ffffff" fill-opacity="1"><g transform="translate(225.07046, 233.690751)"><g><path d="M 8.765625 -2.28125 C 7.265625 -1.84375 5.820312 -1.773438 4.4375 -2.078125 C 3.0625 -2.378906 1.867188 -2.992188 0.859375 -3.921875 C -0.148438 -4.859375 -0.859375 -6.035156 -1.265625 -7.453125 C -1.671875 -8.867188 -1.695312 -10.242188 -1.34375 -11.578125 C -0.988281 -12.910156 -0.304688 -14.070312 0.703125 -15.0625 C 1.710938 -16.050781 2.96875 -16.765625 4.46875 -17.203125 C 5.96875 -17.628906 7.410156 -17.691406 8.796875 -17.390625 C 10.179688 -17.085938 11.378906 -16.46875 12.390625 -15.53125 C 13.410156 -14.59375 14.125 -13.414062 14.53125 -12 C 14.9375 -10.582031 14.957031 -9.207031 14.59375 -7.875 C 14.238281 -6.550781 13.550781 -5.394531 12.53125 -4.40625 C 11.519531 -3.414062 10.265625 -2.707031 8.765625 -2.28125 Z M 7.953125 -5.109375 C 8.804688 -5.347656 9.519531 -5.757812 10.09375 -6.34375 C 10.675781 -6.9375 11.0625 -7.644531 11.25 -8.46875 C 11.445312 -9.289062 11.414062 -10.144531 11.15625 -11.03125 C 10.894531 -11.925781 10.460938 -12.664062 9.859375 -13.25 C 9.265625 -13.832031 8.566406 -14.222656 7.765625 -14.421875 C 6.972656 -14.617188 6.148438 -14.597656 5.296875 -14.359375 C 4.453125 -14.109375 3.738281 -13.6875 3.15625 -13.09375 C 2.570312 -12.5 2.1875 -11.796875 2 -10.984375 C 1.8125 -10.171875 1.847656 -9.316406 2.109375 -8.421875 C 2.367188 -7.535156 2.796875 -6.796875 3.390625 -6.203125 C 3.984375 -5.609375 4.679688 -5.210938 5.484375 -5.015625 C 6.285156 -4.828125 7.109375 -4.859375 7.953125 -5.109375 Z M 7.953125 -5.109375 "/></g></g></g><g fill="#ffffff" fill-opacity="1"><g transform="translate(242.979644, 228.409613)"><g><path d="M 6.375 -2.171875 C 5.257812 -1.742188 4.125 -1.476562 2.96875 -1.375 C 1.820312 -1.28125 0.835938 -1.359375 0.015625 -1.609375 L 0.1875 -4.46875 C 0.957031 -4.257812 1.804688 -4.175781 2.734375 -4.21875 C 3.671875 -4.269531 4.554688 -4.453125 5.390625 -4.765625 C 6.304688 -5.117188 6.929688 -5.519531 7.265625 -5.96875 C 7.609375 -6.414062 7.691406 -6.863281 7.515625 -7.3125 C 7.390625 -7.65625 7.15625 -7.882812 6.8125 -8 C 6.46875 -8.113281 6.066406 -8.160156 5.609375 -8.140625 C 5.148438 -8.117188 4.539062 -8.054688 3.78125 -7.953125 C 2.613281 -7.804688 1.640625 -7.722656 0.859375 -7.703125 C 0.0859375 -7.691406 -0.644531 -7.875 -1.34375 -8.25 C -2.050781 -8.632812 -2.585938 -9.296875 -2.953125 -10.234375 C -3.265625 -11.054688 -3.328125 -11.878906 -3.140625 -12.703125 C -2.953125 -13.535156 -2.488281 -14.3125 -1.75 -15.03125 C -1.007812 -15.75 0 -16.351562 1.28125 -16.84375 C 2.175781 -17.1875 3.09375 -17.414062 4.03125 -17.53125 C 4.976562 -17.644531 5.847656 -17.628906 6.640625 -17.484375 L 6.578125 -14.625 C 5.003906 -14.875 3.566406 -14.75 2.265625 -14.25 C 1.359375 -13.90625 0.742188 -13.5 0.421875 -13.03125 C 0.109375 -12.570312 0.0390625 -12.101562 0.21875 -11.625 C 0.40625 -11.144531 0.789062 -10.882812 1.375 -10.84375 C 1.96875 -10.800781 2.828125 -10.859375 3.953125 -11.015625 C 5.109375 -11.179688 6.070312 -11.269531 6.84375 -11.28125 C 7.625 -11.289062 8.363281 -11.113281 9.0625 -10.75 C 9.769531 -10.382812 10.300781 -9.734375 10.65625 -8.796875 C 10.96875 -7.992188 11.023438 -7.175781 10.828125 -6.34375 C 10.628906 -5.507812 10.15625 -4.726562 9.40625 -4 C 8.664062 -3.269531 7.65625 -2.660156 6.375 -2.171875 Z M 6.375 -2.171875 "/></g></g></g></svg>