<svg xmlns="http://www.w3.org/2000/svg" xmlns:xlink="http://www.w3.org/1999/xlink" width="529" zoomAndPan="magnify" viewBox="0 0 396.75 396.749985" height="529" preserveAspectRatio="xMidYMid meet" version="1.0"><defs><clipPath id="782cebdc55"><path d="M 6.617188 20.589844 L 389.625 20.589844 L 389.625 357 L 6.617188 357 Z M 6.617188 20.589844 " clip-rule="nonzero"/></clipPath></defs><g clip-path="url(#782cebdc55)"><path fill="#ccb13b" d="M 210.035156 158.953125 C 214.515625 135.914062 219.230469 124.902344 223.566406 115.003906 L 224.957031 111.761719 L 228.464844 112.289062 C 258.15625 116.761719 286.011719 128.445312 308.15625 140.75 C 330.296875 153.058594 346.535156 165.765625 353.691406 173.476562 L 346.941406 179.730469 C 341.179688 173.523438 325.085938 160.703125 303.652344 148.789062 C 283.125 137.378906 257.511719 126.664062 230.613281 122.050781 C 226.675781 130.871094 222.945312 139.011719 219.066406 158.949219 Z M 358.257812 169.410156 C 360.972656 169.410156 363.1875 167.226562 363.1875 164.511719 C 363.1875 161.800781 360.972656 159.582031 358.257812 159.582031 C 355.546875 159.582031 353.332031 161.800781 353.332031 164.511719 C 353.328125 167.226562 355.542969 169.410156 358.257812 169.410156 Z M 195.238281 66.722656 L 195.238281 52.488281 L 180.679688 60.863281 L 177.929688 60.863281 L 177.929688 35.910156 L 180.679688 35.910156 L 195.238281 45.410156 L 195.238281 39.519531 L 186.175781 24.195312 L 186.175781 20.589844 L 211.324219 20.589844 L 211.324219 24.195312 L 202.257812 39.519531 L 202.257812 47.625 L 216.753906 38.195312 L 219.335938 38.195312 L 219.335938 61.824219 L 216.753906 61.824219 L 202.257812 53.484375 L 202.257812 66.917969 C 211.835938 68.78125 219.070312 77.183594 219.070312 87.304688 C 219.070312 98.796875 209.742188 108.121094 198.253906 108.121094 C 186.765625 108.121094 177.472656 98.792969 177.472656 87.304688 C 177.46875 76.847656 185.191406 68.191406 195.238281 66.722656 Z M 183.765625 90.191406 C 185.15625 96.929688 191.136719 102.015625 198.285156 102.015625 C 205.433594 102.015625 211.410156 96.929688 212.804688 90.191406 Z M 212.804688 84.1875 C 211.613281 78.417969 207.058594 73.863281 201.285156 72.671875 L 201.285156 84.1875 Z M 195.28125 72.671875 C 189.511719 73.863281 184.957031 78.417969 183.765625 84.1875 L 195.28125 84.1875 Z M 237.234375 110.40625 C 242.457031 110.40625 246.699219 106.191406 246.699219 100.972656 C 246.699219 95.75 242.457031 91.507812 237.234375 91.507812 C 232.011719 91.507812 227.769531 95.75 227.769531 100.972656 C 227.769531 106.195312 232.015625 110.40625 237.234375 110.40625 Z M 262.1875 115.335938 C 266.992188 115.335938 270.894531 111.433594 270.894531 106.628906 C 270.894531 101.824219 266.992188 97.925781 262.1875 97.925781 C 257.386719 97.925781 253.484375 101.824219 253.484375 106.628906 C 253.484375 111.433594 257.382812 115.335938 262.1875 115.335938 Z M 325.363281 145.21875 C 329.125 145.21875 332.148438 142.160156 332.148438 138.402344 C 332.148438 134.644531 329.125 131.582031 325.363281 131.582031 C 321.605469 131.582031 318.546875 134.640625 318.546875 138.402344 C 318.546875 142.160156 321.605469 145.21875 325.363281 145.21875 Z M 343.5 157.328125 C 346.839844 157.328125 349.554688 154.617188 349.554688 151.273438 C 349.554688 147.929688 346.84375 145.21875 343.5 145.21875 C 340.15625 145.21875 337.441406 147.929688 337.441406 151.273438 C 337.441406 154.617188 340.15625 157.328125 343.5 157.328125 Z M 304.945312 133.105469 C 308.914062 133.105469 312.125 129.894531 312.125 125.925781 C 312.125 121.957031 308.914062 118.746094 304.945312 118.746094 C 300.976562 118.746094 297.730469 121.957031 297.730469 125.925781 C 297.730469 129.894531 300.976562 133.105469 304.945312 133.105469 Z M 284.890625 124.238281 C 289.175781 124.238281 292.632812 120.742188 292.632812 116.460938 C 292.632812 112.175781 289.171875 108.714844 284.890625 108.714844 C 280.609375 108.714844 277.148438 112.175781 277.148438 116.460938 C 277.148438 120.742188 280.609375 124.238281 284.890625 124.238281 Z M 198.25 132.644531 C 194.492188 132.644531 191.46875 135.699219 191.46875 139.460938 C 191.46875 143.222656 194.492188 146.246094 198.25 146.246094 C 202.011719 146.246094 205.070312 143.222656 205.070312 139.460938 C 205.070312 135.699219 202.011719 132.644531 198.25 132.644531 Z M 49.59375 179.734375 C 55.355469 173.527344 71.453125 160.703125 92.882812 148.792969 C 113.410156 137.382812 139.023438 126.667969 165.921875 122.050781 C 169.859375 130.875 173.589844 139.011719 177.46875 158.953125 L 186.503906 158.953125 C 182.023438 135.914062 177.308594 124.902344 172.96875 115.003906 L 171.578125 111.761719 L 168.070312 112.289062 C 138.378906 116.761719 110.523438 128.445312 88.382812 140.75 C 66.242188 153.058594 50 165.765625 42.84375 173.476562 Z M 53.039062 157.328125 C 56.378906 157.328125 59.097656 154.617188 59.097656 151.273438 C 59.097656 147.929688 56.382812 145.21875 53.039062 145.21875 C 49.691406 145.21875 46.980469 147.929688 46.980469 151.273438 C 46.980469 154.617188 49.695312 157.328125 53.039062 157.328125 Z M 38.277344 169.410156 C 40.988281 169.410156 43.207031 167.226562 43.207031 164.511719 C 43.207031 161.800781 40.988281 159.582031 38.277344 159.582031 C 35.5625 159.582031 33.347656 161.800781 33.347656 164.511719 C 33.347656 167.226562 35.5625 169.410156 38.277344 169.410156 Z M 71.171875 145.21875 C 74.933594 145.21875 77.992188 142.160156 77.992188 138.402344 C 77.992188 134.644531 74.929688 131.582031 71.171875 131.582031 C 67.414062 131.582031 64.390625 134.640625 64.390625 138.402344 C 64.386719 142.160156 67.410156 145.21875 71.171875 145.21875 Z M 296.132812 322.171875 C 279.503906 318.839844 244.671875 313.246094 198.285156 313.246094 C 151.894531 313.246094 117.066406 318.835938 100.4375 322.171875 C 71.699219 327.929688 60.996094 333.914062 60.996094 336.332031 C 60.996094 338.144531 70.628906 343.621094 100.40625 348.964844 C 117 351.945312 151.777344 356.9375 198.289062 356.9375 C 244.796875 356.9375 279.578125 351.941406 296.167969 348.964844 C 325.949219 343.621094 335.585938 338.144531 335.585938 336.332031 C 335.578125 333.914062 324.871094 327.933594 296.132812 322.171875 Z M 384.671875 211.203125 C 387.871094 214.191406 389.46875 219.707031 388.644531 226.195312 C 387.550781 234.792969 382.699219 240.800781 376.847656 240.816406 C 375.339844 243.449219 372.773438 250.214844 370.546875 258.234375 C 368.53125 262.605469 361.414062 278.917969 363.695312 286.675781 C 366.058594 294.695312 368.925781 303.257812 369.523438 305.035156 C 369.480469 305.214844 369.429688 305.394531 369.378906 305.574219 C 367.140625 307.214844 351.011719 319.273438 346.890625 329.1875 C 344.394531 332.023438 343.914062 331.726562 338.570312 328.789062 C 313.984375 315.277344 260.386719 305.988281 198.285156 305.988281 C 136.183594 305.988281 82.585938 315.277344 58 328.789062 C 52.921875 331.578125 52.230469 331.984375 50.039062 329.589844 C 45.914062 318.863281 27.140625 305.390625 27.136719 305.386719 C 27.136719 305.378906 30.433594 295.679688 33.078125 286.679688 C 35.726562 277.679688 25.710938 257.128906 25.710938 257.128906 L 25.710938 257.132812 C 23.554688 249.601562 21.15625 243.332031 19.71875 240.820312 C 13.871094 240.804688 9.019531 234.796875 7.925781 226.199219 C 7.097656 219.710938 8.695312 214.195312 11.894531 211.207031 C 9.273438 204.609375 7.3125 196.707031 5.382812 188.703125 C 14.652344 186.699219 23.105469 183.335938 37.152344 182.285156 C 30.410156 192.460938 28.59375 201.011719 23.851562 210.191406 C 35.371094 201.289062 35.371094 201.289062 42.449219 196.28125 C 47.746094 204.21875 52.867188 231.074219 53.402344 241.65625 C 45.832031 235.113281 41.242188 232.003906 37.617188 230.503906 C 32.917969 228.5625 30.605469 227.492188 29.816406 228.136719 C 29.777344 228.820312 29.707031 229.484375 29.613281 230.125 C 29.832031 231.355469 30.363281 233.140625 31.101562 235.636719 C 38.570312 260.90625 55.40625 266.808594 71.175781 267.007812 C 96.414062 267.316406 104.4375 244.703125 103.710938 235.238281 C 102.671875 221.777344 94.042969 219.699219 86.699219 220.476562 C 72.96875 221.933594 70.710938 235.429688 73.066406 248.078125 C 42.269531 232.234375 56.257812 180.117188 96.894531 197.410156 C 91.550781 177.796875 91.1875 160.320312 99.9375 146.742188 C 110.515625 157.371094 122.910156 166.375 118.835938 195.125 C 126.488281 189.632812 133.148438 184.113281 140.015625 185.691406 C 149.273438 187.824219 157.703125 191.585938 159.308594 206.113281 C 160.433594 216.253906 154.597656 225.925781 146.835938 232.1875 C 145.796875 222.234375 143.957031 213.558594 132.835938 213.292969 C 120.0625 212.988281 117.691406 223.535156 118.074219 231.824219 C 118.605469 243.304688 134.136719 256.773438 154.015625 255.285156 C 173.941406 253.800781 191.210938 236.816406 190.917969 216.234375 C 184.609375 217.75 176.671875 224.304688 173.011719 227.457031 C 172.308594 228.058594 169.847656 228.011719 169.140625 228.050781 L 169.140625 185.03125 C 170.066406 185.050781 171.964844 184.789062 173.082031 185.460938 C 178.796875 188.917969 185.589844 199.898438 189.5625 198.929688 C 186.476562 186.316406 178.046875 171.152344 177.847656 166 L 218.75 166 C 218.550781 171.148438 210.125 186.316406 207.035156 198.929688 C 211.007812 199.898438 217.800781 188.917969 223.515625 185.460938 C 224.632812 184.785156 226.53125 185.046875 227.457031 185.03125 L 227.457031 228.050781 C 226.75 228.015625 224.289062 228.0625 223.585938 227.457031 C 219.925781 224.304688 211.988281 217.75 205.679688 216.234375 C 205.386719 236.816406 222.652344 253.800781 242.582031 255.285156 C 262.460938 256.769531 277.992188 243.304688 278.523438 231.824219 C 278.90625 223.535156 276.535156 212.988281 263.761719 213.292969 C 252.640625 213.558594 250.800781 222.230469 249.761719 232.1875 C 242 225.925781 236.164062 216.253906 237.289062 206.113281 C 238.894531 191.585938 247.324219 187.820312 256.582031 185.691406 C 263.449219 184.113281 270.109375 189.636719 277.761719 195.125 C 273.683594 166.375 286.078125 157.371094 296.660156 146.742188 C 305.410156 160.316406 305.046875 177.792969 299.703125 197.410156 C 340.339844 180.117188 354.328125 232.234375 323.53125 248.078125 C 325.886719 235.429688 323.628906 221.933594 309.894531 220.476562 C 302.550781 219.703125 293.921875 221.78125 292.886719 235.238281 C 292.160156 244.703125 300.183594 267.316406 325.417969 267.007812 C 341.1875 266.808594 358.027344 260.90625 365.496094 235.636719 C 366.234375 233.140625 366.761719 231.355469 366.984375 230.125 C 366.886719 229.484375 366.820312 228.820312 366.777344 228.136719 C 365.992188 227.496094 363.671875 228.5625 358.976562 230.503906 C 355.734375 231.847656 351.203125 234.734375 343.195312 241.65625 C 343.730469 231.078125 348.847656 204.21875 354.148438 196.28125 C 361.226562 201.289062 361.804688 204.4375 372.746094 210.1875 C 368.003906 201.007812 366.191406 192.46875 359.445312 182.285156 C 373.492188 183.332031 381.941406 186.699219 391.214844 188.703125 C 389.257812 196.707031 387.300781 204.609375 384.671875 211.203125 Z M 23.6875 224.191406 C 22.984375 218.679688 20.222656 214.492188 17.515625 214.835938 C 14.808594 215.175781 13.179688 219.929688 13.882812 225.441406 C 14.582031 230.953125 17.347656 235.140625 20.050781 234.796875 C 22.761719 234.449219 24.386719 229.703125 23.6875 224.191406 Z M 48.46875 299.101562 L 37.980469 290.566406 L 34.902344 303.738281 L 45.425781 312.3125 Z M 69.617188 290.738281 C 73.957031 290.738281 77.472656 287.222656 77.472656 282.882812 C 77.472656 278.542969 73.957031 275.027344 69.617188 275.027344 C 65.277344 275.027344 61.761719 278.542969 61.761719 282.882812 C 61.761719 287.21875 65.28125 290.738281 69.617188 290.738281 Z M 85.328125 305.386719 C 85.328125 301.046875 81.808594 297.53125 77.472656 297.53125 C 73.132812 297.53125 69.617188 301.046875 69.617188 305.386719 C 69.617188 309.726562 73.132812 313.242188 77.472656 313.242188 C 81.808594 313.242188 85.328125 309.722656 85.328125 305.386719 Z M 139.644531 279.183594 C 138.6875 271.65625 130.472656 266.339844 120.414062 266.144531 C 118.980469 266.117188 117.511719 266.183594 116.015625 266.378906 C 104.046875 267.898438 95.234375 276.078125 96.324219 284.675781 C 97.414062 293.273438 107.988281 299.039062 119.953125 297.515625 C 131.917969 295.996094 140.734375 287.78125 139.644531 279.183594 Z M 167.574219 291.53125 C 167.574219 287.191406 164.058594 283.675781 159.71875 283.675781 C 155.378906 283.675781 151.863281 287.191406 151.863281 291.53125 C 151.863281 295.871094 155.378906 299.386719 159.71875 299.386719 C 164.058594 299.386719 167.574219 295.867188 167.574219 291.53125 Z M 167.574219 268.410156 C 167.574219 264.070312 164.058594 260.554688 159.71875 260.554688 C 155.378906 260.554688 151.863281 264.070312 151.863281 268.410156 C 151.863281 272.75 155.378906 276.265625 159.71875 276.265625 C 164.058594 276.265625 167.574219 272.746094 167.574219 268.410156 Z M 191.578125 205.929688 C 191.578125 209.636719 194.578125 212.636719 198.285156 212.636719 C 201.988281 212.636719 204.992188 209.636719 204.992188 205.929688 C 204.992188 202.226562 201.988281 199.222656 198.285156 199.222656 C 194.582031 199.222656 191.578125 202.226562 191.578125 205.929688 Z M 210.464844 275.308594 L 198.25 253.582031 L 185.753906 275.308594 L 198.25 295.238281 Z M 243.46875 291.972656 C 243.46875 287.632812 239.953125 284.121094 235.617188 284.121094 C 231.277344 284.121094 227.761719 287.632812 227.761719 291.972656 C 227.761719 296.3125 231.277344 299.828125 235.617188 299.828125 C 239.953125 299.828125 243.46875 296.308594 243.46875 291.972656 Z M 246.292969 268.410156 C 246.292969 264.070312 242.777344 260.554688 238.4375 260.554688 C 234.101562 260.554688 230.585938 264.070312 230.585938 268.410156 C 230.585938 272.75 234.101562 276.265625 238.4375 276.265625 C 242.777344 276.265625 246.292969 272.746094 246.292969 268.410156 Z M 280.554688 266.375 C 279.0625 266.183594 277.589844 266.113281 276.15625 266.140625 C 266.097656 266.339844 257.882812 271.65625 256.929688 279.179688 C 255.839844 287.777344 264.652344 295.992188 276.621094 297.511719 C 288.585938 299.035156 299.15625 293.269531 300.25 284.671875 C 301.335938 276.074219 292.523438 267.894531 280.554688 266.375 Z M 327.128906 306.179688 C 327.128906 301.839844 323.613281 298.328125 319.277344 298.328125 C 314.9375 298.328125 311.421875 301.839844 311.421875 306.179688 C 311.421875 310.519531 314.9375 314.035156 319.277344 314.035156 C 323.613281 314.035156 327.128906 310.515625 327.128906 306.179688 Z M 334.984375 283.675781 C 334.984375 279.335938 331.46875 275.824219 327.128906 275.824219 C 322.792969 275.824219 319.277344 279.335938 319.277344 283.675781 C 319.277344 288.015625 322.792969 291.53125 327.128906 291.53125 C 331.46875 291.53125 334.984375 288.011719 334.984375 283.675781 Z M 361.667969 303.734375 L 358.589844 290.5625 L 348.101562 299.101562 L 351.144531 312.304688 Z M 379.054688 214.835938 C 376.34375 214.492188 373.582031 218.683594 372.882812 224.195312 C 372.179688 229.703125 373.808594 234.453125 376.515625 234.796875 C 379.226562 235.140625 381.988281 230.953125 382.6875 225.441406 C 383.386719 219.925781 381.761719 215.179688 379.054688 214.835938 Z M 91.589844 133.105469 C 95.558594 133.105469 98.804688 129.894531 98.804688 125.925781 C 98.804688 121.957031 95.5625 118.746094 91.589844 118.746094 C 87.621094 118.746094 84.410156 121.957031 84.410156 125.925781 C 84.410156 129.894531 87.621094 133.105469 91.589844 133.105469 Z M 159.300781 110.40625 C 164.523438 110.40625 168.765625 106.191406 168.765625 100.972656 C 168.765625 95.75 164.523438 91.507812 159.300781 91.507812 C 154.078125 91.507812 149.835938 95.75 149.835938 100.972656 C 149.835938 106.195312 154.078125 110.40625 159.300781 110.40625 Z M 198.25 150.613281 C 195.539062 150.613281 193.355469 152.796875 193.355469 155.511719 C 193.355469 158.226562 195.539062 160.441406 198.25 160.441406 C 200.96875 160.441406 203.183594 158.226562 203.183594 155.511719 C 203.183594 152.796875 200.96875 150.613281 198.25 150.613281 Z M 198.25 112.390625 C 193.863281 112.390625 190.308594 115.941406 190.308594 120.332031 C 190.308594 124.71875 193.863281 128.273438 198.25 128.273438 C 202.640625 128.273438 206.195312 124.71875 206.195312 120.332031 C 206.195312 115.945312 202.636719 112.390625 198.25 112.390625 Z M 134.347656 115.335938 C 139.152344 115.335938 143.050781 111.433594 143.050781 106.628906 C 143.050781 101.824219 139.152344 97.925781 134.347656 97.925781 C 129.542969 97.925781 125.644531 101.824219 125.644531 106.628906 C 125.644531 111.433594 129.542969 115.335938 134.347656 115.335938 Z M 111.644531 124.238281 C 115.929688 124.238281 119.386719 120.742188 119.386719 116.460938 C 119.386719 112.175781 115.925781 108.714844 111.644531 108.714844 C 107.363281 108.714844 103.902344 112.175781 103.902344 116.460938 C 103.902344 120.742188 107.363281 124.238281 111.644531 124.238281 Z M 111.644531 124.238281 " fill-opacity="1" fill-rule="nonzero"/></g></svg>