<svg xmlns="http://www.w3.org/2000/svg" xmlns:xlink="http://www.w3.org/1999/xlink" width="500" zoomAndPan="magnify" viewBox="0 0 375 374.999991" height="500" preserveAspectRatio="xMidYMid meet" version="1.0"><defs><clipPath id="e6d74453d0"><path d="M 103.515625 129.363281 L 271.515625 129.363281 L 271.515625 224.613281 L 103.515625 224.613281 Z M 103.515625 129.363281 " clip-rule="nonzero"/></clipPath><clipPath id="065e823104"><path d="M 256.488281 189.320312 L 368.988281 189.320312 L 368.988281 232.070312 L 256.488281 232.070312 Z M 256.488281 189.320312 " clip-rule="nonzero"/></clipPath><clipPath id="80a75368b2"><path d="M 6.40625 189.320312 L 118.578125 189.320312 L 118.578125 232.070312 L 6.40625 232.070312 Z M 6.40625 189.320312 " clip-rule="nonzero"/></clipPath></defs><g clip-path="url(#e6d74453d0)"><path fill="#d5af34" d="M 271.550781 162.234375 L 266.949219 166.53125 L 267.625 169.46875 C 245.558594 193.933594 230.984375 205.503906 226.726562 199.335938 C 223.332031 187.636719 225.03125 176.0625 230.375 164.582031 L 234.917969 162.453125 L 235.792969 152.382812 L 228.816406 159.695312 L 230.242188 164.59375 C 224.472656 174.277344 218.273438 182.851562 211.1875 189.117188 C 203.722656 195.714844 201.441406 196.640625 196.613281 186.261719 C 193.039062 178.574219 191.8125 168.273438 189.410156 159.28125 L 195.523438 152.140625 L 187.535156 129.382812 L 179.542969 152.140625 L 185.65625 159.277344 C 183.253906 168.269531 182.027344 178.574219 178.449219 186.261719 C 173.621094 196.640625 171.347656 195.714844 163.878906 189.117188 C 156.789062 182.851562 150.589844 174.277344 144.820312 164.59375 L 146.25 159.695312 L 139.269531 152.386719 L 140.144531 162.457031 L 144.691406 164.582031 C 150.035156 176.0625 151.738281 187.636719 148.339844 199.335938 C 144.082031 205.503906 129.511719 193.933594 107.4375 169.46875 L 108.117188 166.53125 L 103.515625 162.234375 L 104.421875 168.460938 L 107.148438 169.554688 L 138.59375 224.292969 L 128.9375 197.703125 C 129.132812 197.863281 129.328125 198.019531 129.523438 198.175781 C 134.445312 202.121094 143.070312 208.503906 149.609375 204.703125 C 150.714844 204.058594 151.644531 203.175781 152.371094 202.121094 L 152.820312 201.46875 L 153.042969 200.703125 C 154.363281 196.164062 154.976562 191.652344 154.984375 187.1875 C 156.78125 189.167969 158.660156 191.046875 160.636719 192.789062 C 163.957031 195.726562 168.167969 199.601562 172.96875 198.890625 C 178.164062 198.125 180.914062 192.589844 182.890625 188.332031 C 185.089844 183.613281 186.402344 178.347656 187.53125 173.1875 C 188.664062 178.347656 189.976562 183.613281 192.171875 188.332031 C 194.15625 192.589844 196.902344 198.125 202.097656 198.890625 C 206.898438 199.597656 211.109375 195.726562 214.429688 192.789062 C 216.40625 191.046875 218.289062 189.167969 220.082031 187.1875 C 220.089844 191.652344 220.707031 196.164062 222.023438 200.703125 L 222.242188 201.46875 L 222.695312 202.121094 C 223.421875 203.175781 224.347656 204.058594 225.457031 204.703125 C 231.996094 208.503906 240.621094 202.121094 245.542969 198.175781 C 245.738281 198.019531 245.933594 197.863281 246.128906 197.703125 L 237.65625 222.328125 L 267.914062 169.554688 L 270.640625 168.464844 Z M 271.550781 162.234375 " fill-opacity="1" fill-rule="evenodd"/></g><path fill="#d5af34" d="M 171.03125 182.546875 C 171.59375 185.117188 172.226562 187.71875 173.085938 190.207031 C 173.664062 189.453125 174.441406 188.195312 175.46875 186.082031 C 173.902344 180.304688 173.042969 173.742188 171.027344 168.460938 C 168.851562 174.167969 168.027344 181.375 166.195312 187.464844 C 167.007812 188.179688 168.074219 189.09375 169.089844 189.855469 C 169.894531 187.480469 170.496094 185 171.03125 182.546875 Z M 171.03125 182.546875 " fill-opacity="1" fill-rule="evenodd"/><path fill="#d5af34" d="M 203.988281 182.546875 C 204.527344 185.007812 205.132812 187.5 205.9375 189.886719 C 206.949219 189.132812 208.015625 188.21875 208.832031 187.5 C 206.996094 181.402344 206.171875 174.175781 203.988281 168.460938 C 201.980469 173.71875 201.125 180.257812 199.566406 186.015625 C 200.59375 188.125 201.371094 189.394531 201.945312 190.160156 C 202.800781 187.691406 203.429688 185.105469 203.988281 182.546875 Z M 203.988281 182.546875 " fill-opacity="1" fill-rule="evenodd"/><path fill="#d5af34" d="M 233.117188 197.308594 C 233.71875 193.394531 234.738281 189.285156 234.839844 185.609375 C 232.53125 188.054688 230.503906 191.300781 228.386719 194.28125 C 228.582031 195.367188 228.828125 196.449219 229.109375 197.527344 C 229.753906 196.6875 230.367188 195.828125 230.96875 194.96875 C 230.777344 196.023438 230.601562 197.09375 230.464844 198.167969 C 231.125 198.085938 231.988281 197.835938 233.117188 197.308594 Z M 233.117188 197.308594 " fill-opacity="1" fill-rule="evenodd"/><path fill="#d5af34" d="M 146.679688 194.28125 C 144.5625 191.300781 142.535156 188.054688 140.226562 185.609375 C 140.328125 189.28125 141.347656 193.394531 141.945312 197.304688 C 143.078125 197.835938 143.941406 198.085938 144.601562 198.167969 C 144.460938 197.09375 144.285156 196.023438 144.097656 194.964844 C 144.695312 195.824219 145.3125 196.6875 145.957031 197.523438 C 146.238281 196.449219 146.484375 195.367188 146.679688 194.28125 Z M 146.679688 194.28125 " fill-opacity="1" fill-rule="evenodd"/><path fill="#d5af34" d="M 222.707031 216.28125 C 220.925781 215.242188 219.40625 213.832031 218.199219 212.082031 L 217.242188 210.695312 L 216.773438 209.078125 C 216.441406 207.9375 216.144531 206.785156 215.890625 205.625 C 212.628906 208.378906 208.457031 211.296875 203.253906 211.296875 C 202.601562 211.296875 201.941406 211.246094 201.300781 211.152344 C 193.421875 209.992188 189.628906 202.628906 187.535156 198.167969 C 185.441406 202.625 181.65625 209.988281 173.769531 211.152344 C 173.125 211.246094 172.464844 211.296875 171.8125 211.296875 C 166.613281 211.296875 162.4375 208.378906 159.179688 205.625 C 158.921875 206.785156 158.628906 207.9375 158.296875 209.082031 L 157.828125 210.695312 L 156.875 212.074219 C 155.667969 213.828125 154.148438 215.238281 152.363281 216.277344 C 150.1875 217.546875 147.761719 218.1875 145.15625 218.1875 C 144.054688 218.1875 142.964844 218.070312 141.878906 217.859375 L 144.285156 222.566406 C 152.09375 219.765625 165.144531 216.433594 183.058594 216.433594 L 183.664062 216.433594 C 184.984375 216.433594 186.273438 216.453125 187.535156 216.480469 C 188.796875 216.453125 190.082031 216.433594 191.40625 216.433594 L 192.007812 216.433594 C 211.609375 216.433594 225.386719 220.421875 232.847656 223.339844 L 236.03125 217.109375 L 236.035156 217.089844 C 234.039062 217.773438 231.988281 218.183594 229.917969 218.183594 C 227.308594 218.1875 224.882812 217.542969 222.707031 216.28125 Z M 222.707031 216.28125 " fill-opacity="1" fill-rule="evenodd"/><g clip-path="url(#065e823104)"><path fill="#d5af34" d="M 367.058594 196.238281 C 364.695312 191.941406 359.484375 189.410156 354.683594 190.453125 C 352.324219 190.949219 350.035156 192.351562 348.890625 194.566406 C 347.773438 196.738281 347.839844 199.617188 349.484375 201.53125 L 349.726562 201.320312 C 348.300781 199.441406 348.429688 196.773438 349.550781 194.910156 C 350.660156 193.007812 352.757812 191.835938 354.902344 191.496094 C 359.242188 190.753906 363.789062 193.324219 365.578125 197.058594 C 366.484375 198.917969 366.796875 201.050781 366.53125 203.144531 C 366.273438 205.238281 365.453125 207.269531 364.257812 208.976562 C 361.832031 212.390625 357.742188 214.503906 353.496094 215.222656 C 351.371094 215.601562 349.183594 215.632812 346.980469 215.414062 C 344.785156 215.199219 342.578125 214.785156 340.394531 214.171875 C 336.019531 212.941406 331.652344 211.167969 327.507812 209.136719 C 319.199219 205.109375 311.480469 199.363281 302.578125 194.941406 C 298.09375 192.777344 293.3125 191.039062 288.25 190.171875 C 283.199219 189.324219 277.84375 189.351562 272.730469 191.101562 C 267.679688 192.875 263.199219 196.140625 260.117188 200.617188 C 258.605469 202.867188 257.472656 205.441406 256.988281 208.179688 C 256.484375 210.851562 256.710938 213.941406 257.75 216.515625 C 258.753906 219.113281 260.351562 221.371094 262.304688 223.214844 C 264.265625 225.050781 266.621094 226.503906 269.285156 227.238281 C 271.921875 227.988281 274.929688 227.875 277.480469 226.691406 L 278.429688 226.25 C 278.730469 226.082031 279.003906 225.867188 279.289062 225.675781 C 279.851562 225.277344 280.425781 224.90625 280.914062 224.40625 C 281.910156 223.453125 282.765625 222.324219 283.347656 221.0625 C 284.53125 218.550781 284.699219 215.609375 283.847656 213.046875 C 282.996094 210.46875 281.257812 208.316406 279.039062 206.941406 C 277.925781 206.257812 276.671875 205.769531 275.351562 205.632812 C 274.058594 205.480469 272.644531 205.691406 271.503906 206.355469 C 270.359375 206.996094 269.429688 207.960938 268.847656 209.101562 C 268.253906 210.234375 268.085938 211.597656 268.46875 212.792969 L 268.777344 212.710938 C 268.492188 211.585938 268.710938 210.367188 269.308594 209.371094 C 269.894531 208.363281 270.789062 207.535156 271.832031 207.027344 C 273.941406 205.953125 276.542969 206.515625 278.449219 207.828125 C 280.394531 209.148438 281.875 211.164062 282.519531 213.429688 C 283.171875 215.691406 282.917969 218.195312 281.835938 220.285156 C 281.300781 221.328125 280.570312 222.269531 279.699219 223.058594 C 279.28125 223.472656 278.773438 223.773438 278.285156 224.101562 C 278.039062 224.257812 277.804688 224.441406 277.546875 224.578125 L 276.738281 224.925781 C 274.589844 225.855469 272.121094 225.898438 269.882812 225.210938 C 265.390625 223.808594 261.722656 220.074219 260.105469 215.664062 C 259.285156 213.445312 259.160156 211.023438 259.640625 208.703125 C 260.09375 206.382812 261.078125 204.179688 262.425781 202.238281 C 265.160156 198.363281 269.210938 195.484375 273.683594 193.988281 C 278.179688 192.503906 283.0625 192.449219 287.71875 193.273438 C 289.171875 193.53125 290.609375 193.875 292.03125 194.28125 C 296.484375 196.683594 300.28125 199.601562 303.367188 203.074219 C 304.875 204.878906 306.332031 206.691406 307.410156 208.730469 C 308.566406 210.71875 309.511719 212.78125 309.902344 214.824219 C 310.402344 216.847656 310.34375 218.84375 309.710938 220.648438 C 309.429688 221.558594 308.984375 222.371094 308.417969 223.066406 C 307.84375 223.714844 307.175781 224.277344 306.339844 224.679688 C 304.699219 225.453125 302.625 225.539062 301.132812 224.429688 C 299.5625 223.320312 298.445312 220.964844 299.21875 218.566406 L 298.949219 218.390625 C 297.503906 220.648438 298.117188 223.75 299.90625 225.617188 C 300.800781 226.582031 302.039062 227.179688 303.316406 227.410156 C 304.597656 227.628906 305.929688 227.507812 307.15625 227.089844 C 308.390625 226.6875 309.519531 225.964844 310.433594 225.039062 C 311.335938 224.101562 312.050781 222.980469 312.523438 221.773438 C 313.503906 219.359375 313.59375 216.644531 313.039062 214.128906 C 312.464844 211.601562 311.335938 209.257812 309.964844 207.109375 C 308.613281 204.941406 306.945312 202.988281 305.101562 201.234375 C 303.40625 199.636719 301.527344 198.242188 299.523438 197.066406 C 300.078125 197.316406 300.628906 197.578125 301.175781 197.84375 C 309.753906 202.019531 317.519531 207.765625 326.214844 211.878906 C 326.300781 211.917969 326.386719 211.953125 326.472656 211.996094 C 328.789062 213.800781 331.03125 215.488281 333.179688 217.222656 C 334.433594 218.3125 335.65625 219.285156 336.550781 220.417969 C 337.484375 221.496094 338.191406 222.625 338.53125 223.8125 C 338.734375 224.386719 338.859375 224.953125 338.886719 225.503906 C 338.917969 226.046875 338.824219 226.53125 338.6875 227.058594 C 338.558594 227.574219 338.328125 228.070312 338.03125 228.472656 C 337.710938 228.867188 337.398438 229.191406 336.960938 229.464844 C 336.507812 229.742188 335.847656 229.902344 335.144531 230.03125 C 334.453125 230.171875 333.71875 230.195312 332.984375 230.128906 C 331.496094 230.035156 330 229.539062 328.664062 228.332031 L 328.378906 228.480469 C 329.195312 230.105469 330.765625 231.242188 332.460938 231.792969 C 334.164062 232.332031 336.015625 232.4375 337.765625 231.90625 C 339.53125 231.34375 340.875 229.847656 341.527344 228.15625 C 342.210938 226.449219 342.144531 224.507812 341.578125 222.800781 C 341.003906 221.078125 339.96875 219.550781 338.71875 218.289062 C 337.695312 217.246094 336.535156 216.367188 335.335938 215.570312 C 336.769531 216.058594 338.21875 216.515625 339.6875 216.902344 C 344.320312 218.101562 349.242188 218.667969 353.992188 217.675781 C 358.695312 216.730469 363.277344 214.238281 366.003906 210.148438 C 367.335938 208.109375 368.195312 205.757812 368.425781 203.328125 C 368.652344 200.902344 368.230469 198.390625 367.058594 196.238281 " fill-opacity="1" fill-rule="nonzero"/></g><g clip-path="url(#80a75368b2)"><path fill="#d5af34" d="M 8.003906 196.238281 C 10.367188 191.941406 15.578125 189.410156 20.382812 190.453125 C 22.742188 190.949219 25.027344 192.351562 26.171875 194.566406 C 27.289062 196.738281 27.222656 199.617188 25.578125 201.53125 L 25.335938 201.320312 C 26.765625 199.441406 26.632812 196.773438 25.511719 194.910156 C 24.402344 193.007812 22.304688 191.835938 20.160156 191.496094 C 15.820312 190.753906 11.273438 193.324219 9.488281 197.058594 C 8.582031 198.917969 8.265625 201.050781 8.53125 203.144531 C 8.792969 205.238281 9.609375 207.269531 10.804688 208.976562 C 13.230469 212.390625 17.320312 214.503906 21.566406 215.222656 C 23.695312 215.601562 25.878906 215.632812 28.082031 215.414062 C 30.277344 215.199219 32.484375 214.785156 34.671875 214.171875 C 39.042969 212.941406 43.410156 211.167969 47.554688 209.136719 C 55.867188 205.109375 63.582031 199.363281 72.484375 194.941406 C 76.972656 192.777344 81.753906 191.039062 86.8125 190.171875 C 91.863281 189.324219 97.222656 189.351562 102.332031 191.101562 C 107.382812 192.875 111.863281 196.140625 114.945312 200.617188 C 116.457031 202.867188 117.589844 205.441406 118.074219 208.179688 C 118.578125 210.851562 118.351562 213.941406 117.3125 216.515625 C 116.308594 219.113281 114.714844 221.371094 112.757812 223.214844 C 110.796875 225.050781 108.441406 226.503906 105.78125 227.238281 C 103.140625 227.988281 100.132812 227.875 97.582031 226.691406 L 96.632812 226.25 C 96.332031 226.082031 96.058594 225.867188 95.773438 225.675781 C 95.210938 225.277344 94.636719 224.90625 94.148438 224.40625 C 93.152344 223.453125 92.300781 222.324219 91.714844 221.0625 C 90.53125 218.550781 90.363281 215.609375 91.214844 213.046875 C 92.066406 210.46875 93.804688 208.316406 96.023438 206.941406 C 97.136719 206.257812 98.394531 205.769531 99.710938 205.632812 C 101.007812 205.480469 102.421875 205.691406 103.558594 206.355469 C 104.703125 206.996094 105.632812 207.960938 106.214844 209.101562 C 106.808594 210.234375 106.976562 211.597656 106.597656 212.792969 L 106.285156 212.710938 C 106.570312 211.585938 106.351562 210.367188 105.753906 209.371094 C 105.171875 208.363281 104.273438 207.535156 103.230469 207.027344 C 101.121094 205.953125 98.523438 206.515625 96.613281 207.828125 C 94.667969 209.148438 93.1875 211.164062 92.542969 213.429688 C 91.894531 215.691406 92.144531 218.195312 93.226562 220.285156 C 93.761719 221.328125 94.492188 222.269531 95.363281 223.058594 C 95.78125 223.472656 96.292969 223.773438 96.777344 224.101562 C 97.023438 224.257812 97.257812 224.441406 97.515625 224.578125 L 98.324219 224.925781 C 100.476562 225.855469 102.941406 225.898438 105.179688 225.210938 C 109.671875 223.808594 113.34375 220.074219 114.960938 215.664062 C 115.777344 213.445312 115.90625 211.023438 115.425781 208.703125 C 114.96875 206.382812 113.984375 204.179688 112.636719 202.238281 C 109.902344 198.363281 105.851562 195.484375 101.378906 193.988281 C 96.882812 192.503906 92 192.449219 87.34375 193.273438 C 85.890625 193.53125 84.453125 193.875 83.03125 194.28125 C 78.578125 196.683594 74.785156 199.601562 71.695312 203.074219 C 70.1875 204.878906 68.734375 206.691406 67.652344 208.730469 C 66.5 210.71875 65.554688 212.78125 65.160156 214.824219 C 64.660156 216.847656 64.71875 218.84375 65.351562 220.648438 C 65.632812 221.558594 66.082031 222.371094 66.644531 223.066406 C 67.21875 223.714844 67.886719 224.277344 68.722656 224.679688 C 70.363281 225.453125 72.441406 225.539062 73.929688 224.429688 C 75.5 223.320312 76.617188 220.964844 75.84375 218.566406 L 76.113281 218.390625 C 77.558594 220.648438 76.945312 223.75 75.15625 225.617188 C 74.265625 226.582031 73.023438 227.179688 71.746094 227.410156 C 70.464844 227.628906 69.132812 227.507812 67.90625 227.089844 C 66.671875 226.6875 65.542969 225.964844 64.628906 225.039062 C 63.726562 224.101562 63.011719 222.980469 62.539062 221.773438 C 61.558594 219.359375 61.46875 216.644531 62.023438 214.128906 C 62.597656 211.601562 63.726562 209.257812 65.097656 207.109375 C 66.449219 204.941406 68.121094 202.988281 69.960938 201.234375 C 71.65625 199.636719 73.539062 198.242188 75.542969 197.066406 C 74.984375 197.316406 74.433594 197.578125 73.886719 197.84375 C 65.308594 202.019531 57.542969 207.765625 48.847656 211.878906 C 48.761719 211.917969 48.675781 211.953125 48.589844 211.996094 C 46.273438 213.800781 44.03125 215.488281 41.886719 217.222656 C 40.628906 218.3125 39.40625 219.285156 38.511719 220.417969 C 37.582031 221.496094 36.871094 222.625 36.53125 223.8125 C 36.328125 224.386719 36.203125 224.953125 36.179688 225.503906 C 36.144531 226.046875 36.238281 226.53125 36.375 227.058594 C 36.507812 227.574219 36.734375 228.070312 37.035156 228.472656 C 37.351562 228.867188 37.664062 229.191406 38.101562 229.464844 C 38.558594 229.742188 39.214844 229.902344 39.917969 230.03125 C 40.609375 230.171875 41.34375 230.195312 42.078125 230.128906 C 43.570312 230.035156 45.0625 229.539062 46.398438 228.332031 L 46.683594 228.480469 C 45.867188 230.105469 44.296875 231.242188 42.605469 231.792969 C 40.898438 232.332031 39.046875 232.4375 37.300781 231.90625 C 35.53125 231.34375 34.1875 229.847656 33.539062 228.15625 C 32.855469 226.449219 32.917969 224.507812 33.484375 222.800781 C 34.058594 221.078125 35.09375 219.550781 36.34375 218.289062 C 37.367188 217.246094 38.527344 216.367188 39.730469 215.570312 C 38.292969 216.058594 36.84375 216.515625 35.375 216.902344 C 30.742188 218.101562 25.820312 218.667969 21.070312 217.675781 C 16.371094 216.730469 11.789062 214.238281 9.058594 210.148438 C 7.726562 208.109375 6.867188 205.757812 6.636719 203.328125 C 6.410156 200.902344 6.832031 198.390625 8.003906 196.238281 " fill-opacity="1" fill-rule="nonzero"/></g></svg>