<svg xmlns="http://www.w3.org/2000/svg" xmlns:xlink="http://www.w3.org/1999/xlink" width="480" zoomAndPan="magnify" viewBox="0 0 360 503.999982" height="672" preserveAspectRatio="xMidYMid meet" version="1.0"><defs><clipPath id="5df438272c"><path d="M 139.921875 99.367188 L 220.070312 99.367188 L 220.070312 138.367188 L 139.921875 138.367188 Z M 139.921875 99.367188 " clip-rule="nonzero"/></clipPath><clipPath id="a9f67bcd7d"><path d="M 140.882812 120.527344 L 219.109375 120.527344 L 219.109375 138.367188 L 140.882812 138.367188 Z M 140.882812 120.527344 " clip-rule="nonzero"/></clipPath></defs><g clip-path="url(#5df438272c)"><path fill="#dcac42" d="M 213.28125 135.828125 C 212.511719 136.125 211.6875 136.316406 210.847656 136.460938 C 213.144531 134.574219 214.445312 131.53125 214.476562 128.308594 C 214.488281 127.226562 212.8125 127.230469 212.804688 128.308594 C 212.753906 133.046875 209.910156 135.792969 206.144531 136.371094 C 206.585938 134.4375 207.222656 132.53125 208.136719 130.78125 C 209.792969 127.613281 214.722656 125.984375 218.332031 125.902344 C 218 129.394531 216.515625 134.574219 213.28125 135.828125 Z M 204.417969 136.476562 C 203.171875 136.453125 201.871094 136.234375 200.558594 135.78125 C 199.621094 135.460938 198.699219 135.125 197.785156 134.792969 C 200.296875 134.492188 202.871094 133.632812 204.585938 132.757812 C 205.003906 132.542969 205.390625 132.261719 205.761719 131.941406 C 205.160156 133.410156 204.726562 134.949219 204.417969 136.476562 Z M 193.464844 132.59375 C 193.363281 131.785156 194.070312 130.085938 194.234375 129.574219 C 194.898438 127.515625 195.988281 125.539062 197.375 123.882812 C 199.734375 121.066406 205.207031 119.472656 209.019531 119.414062 C 208.679688 123.15625 207.144531 128.820312 204.292969 130.96875 C 203.015625 131.933594 200.453125 132.8125 198.007812 133.140625 C 199.765625 132.40625 201.332031 131.304688 202.535156 129.621094 C 204 127.570312 204.359375 124.90625 204.367188 122.453125 C 204.371094 121.371094 202.699219 121.371094 202.695312 122.453125 C 202.683594 124.433594 202.425781 126.363281 201.484375 128.136719 C 199.917969 131.085938 196.59375 132.203125 193.464844 132.59375 Z M 181.816406 130.222656 C 182.0625 128.539062 182.84375 124.421875 185.464844 122.226562 C 188.085938 120.035156 191.84375 119.378906 194.210938 119.367188 C 195.292969 119.363281 195.292969 117.6875 194.210938 117.695312 C 191.765625 117.703125 189.359375 118.046875 187.164062 119.054688 C 187.796875 117.523438 188.144531 115.925781 188.007812 114.257812 C 191.148438 112.792969 195.179688 111.929688 198.074219 111.6875 C 198.054688 116.085938 196.207031 120.683594 194.082031 124.421875 C 191.789062 128.457031 186.148438 129.273438 181.816406 130.222656 Z M 191.808594 132.648438 C 189.847656 131.996094 187.875 131.421875 185.824219 131.03125 C 188.316406 130.433594 190.804688 129.628906 192.78125 128.203125 C 192.089844 129.75 191.628906 131.355469 191.808594 132.648438 Z M 181.636719 124.667969 C 181.796875 121.71875 182.414062 118.851562 184.390625 116.699219 C 184.882812 116.164062 185.511719 115.671875 186.226562 115.222656 C 186.078125 117.316406 185.269531 119.230469 184.167969 121.050781 C 183.113281 122.058594 182.3125 123.265625 181.703125 124.582031 C 181.679688 124.609375 181.660156 124.640625 181.636719 124.667969 Z M 180.242188 122.125 C 179.855469 119.691406 179.03125 117.394531 177.304688 115.515625 C 176.488281 114.625 175.378906 113.847656 174.109375 113.175781 C 174.152344 112.992188 174.183594 112.808594 174.242188 112.625 C 175.464844 108.777344 178.167969 104.875 180.769531 101.847656 C 181.734375 100.722656 182.8125 103.804688 183.335938 104.816406 C 184.519531 107.089844 185.292969 109.589844 185.929688 112.066406 C 186.050781 112.539062 186.125 112.996094 186.179688 113.453125 C 185.355469 113.910156 184.578125 114.394531 183.917969 114.933594 C 181.671875 116.769531 180.675781 119.34375 180.242188 122.125 Z M 176.148438 120.929688 C 174.953125 119.167969 174.0625 117.285156 173.929688 115.316406 C 174.289062 115.5 174.648438 115.683594 174.988281 115.875 C 177.882812 117.484375 178.707031 120.910156 178.894531 124.414062 C 178.714844 124.207031 177.046875 121.78125 176.148438 120.929688 Z M 166.425781 124.421875 C 164.085938 121.109375 162.457031 115.902344 162.433594 111.707031 C 165.671875 111.988281 169.070312 113.046875 172.125 114.4375 C 172.015625 115.925781 172.367188 117.40625 173.007812 118.847656 C 170.914062 117.953125 168.535156 117.703125 166.296875 117.691406 C 165.214844 117.6875 165.214844 119.363281 166.296875 119.367188 C 168.730469 119.378906 172.179688 119.625 174.761719 121.886719 C 177.339844 124.152344 178.421875 128.363281 178.691406 130.21875 C 174.203125 129.195312 169.234375 128.398438 166.425781 124.421875 Z M 168.464844 133.015625 C 168.078125 131.40625 167.734375 129.585938 167.222656 127.824219 C 169.460938 129.664062 172.515625 130.546875 175.46875 131.21875 C 173.339844 131.703125 170.945312 132.367188 168.464844 133.015625 Z M 159.21875 128.136719 C 158.21875 126.433594 158.015625 124.382812 158.007812 122.453125 C 158.003906 121.371094 156.328125 121.371094 156.332031 122.453125 C 156.34375 124.980469 156.769531 127.464844 158.167969 129.621094 C 159.039062 130.964844 160.230469 131.929688 161.574219 132.640625 C 159.414062 132.453125 157.347656 131.910156 155.761719 130.457031 C 153.371094 128.261719 152.007812 122.886719 151.691406 119.410156 C 155.246094 119.476562 158.941406 120.96875 161.960938 122.683594 C 165.179688 124.515625 165.878906 129.003906 166.636719 132.511719 C 163.644531 132.042969 160.824219 130.875 159.21875 128.136719 Z M 156.164062 135.246094 C 155.867188 134.160156 155.5 133.085938 155.074219 132.03125 C 157.167969 133.804688 159.996094 134.269531 162.835938 134.359375 C 160.523438 134.839844 158.25 135.183594 156.164062 135.246094 Z M 153.742188 135.171875 C 149.464844 134.742188 146.386719 132.605469 146.113281 127.074219 C 146.058594 125.996094 144.382812 125.992188 144.4375 127.074219 C 144.628906 130.914062 145.910156 133.375 147.890625 134.878906 C 147.570312 134.8125 147.242188 134.769531 146.929688 134.679688 C 143.511719 133.730469 141.996094 128.160156 141.660156 124.664062 C 145.230469 124.746094 149.769531 126.355469 151.777344 129.199219 C 152.996094 130.929688 153.792969 133.039062 154.382812 135.105469 C 154.171875 135.128906 153.957031 135.152344 153.742188 135.171875 Z M 219.234375 124.21875 C 216.191406 124.054688 211.515625 125.15625 208.816406 127.34375 C 210.046875 124.367188 210.648438 120.910156 210.757812 118.570312 C 210.777344 118.097656 210.359375 117.757812 209.917969 117.734375 C 206.117188 117.527344 200.824219 118.921875 197.464844 121.578125 C 199 118.140625 199.941406 114.273438 199.75 110.792969 C 199.726562 110.355469 199.386719 109.933594 198.914062 109.957031 C 195.597656 110.105469 191.300781 111.046875 187.753906 112.65625 C 186.835938 108.042969 185.050781 103.058594 181.839844 99.609375 C 181.519531 99.261719 180.980469 99.308594 180.65625 99.609375 C 177.070312 102.886719 174.105469 107.816406 172.554688 112.445312 C 168.960938 110.910156 164.574219 110.089844 161.59375 109.957031 C 161.121094 109.933594 160.78125 110.351562 160.757812 110.792969 C 160.570312 114.203125 161.46875 117.984375 162.949219 121.375 C 159.519531 119.117188 154.828125 117.511719 150.78125 117.734375 C 150.34375 117.757812 149.921875 118.097656 149.945312 118.570312 C 150.050781 120.910156 150.628906 123.832031 151.613281 126.460938 C 148.988281 124.058594 143.964844 122.808594 140.761719 122.980469 C 140.320312 123.003906 139.902344 123.34375 139.921875 123.820312 C 140.09375 127.613281 141.617188 133.8125 145.222656 135.792969 C 147.65625 137.132812 149.890625 137.074219 153.824219 136.855469 C 165.144531 136.226562 174.789062 132.289062 180.746094 132.144531 C 185.941406 132.015625 190.96875 133.722656 195.714844 135.640625 C 198.660156 136.828125 201.820312 138.160156 205.03125 138.402344 C 216.597656 139.265625 217.457031 134.234375 218.121094 132.554688 C 219.066406 130.171875 219.953125 127.640625 220.070312 125.054688 C 220.09375 124.582031 219.675781 124.242188 219.234375 124.21875 " fill-opacity="1" fill-rule="nonzero"/></g><g clip-path="url(#a9f67bcd7d)"><path fill="#dcac42" d="M 204.417969 136.476562 C 203.171875 136.453125 201.871094 136.234375 200.558594 135.78125 C 199.621094 135.460938 198.699219 135.125 197.785156 134.792969 C 200.296875 134.492188 202.871094 133.632812 204.585938 132.757812 C 205.003906 132.542969 205.390625 132.261719 205.761719 131.941406 C 205.160156 133.410156 204.726562 134.949219 204.417969 136.476562 Z M 191.808594 132.648438 C 189.847656 131.996094 187.875 131.421875 185.824219 131.03125 C 188.316406 130.433594 190.804688 129.628906 192.78125 128.203125 C 192.089844 129.75 191.628906 131.355469 191.808594 132.648438 Z M 168.464844 133.015625 C 168.078125 131.40625 167.734375 129.585938 167.222656 127.824219 C 169.460938 129.664062 172.515625 130.546875 175.46875 131.21875 C 173.339844 131.703125 170.945312 132.367188 168.464844 133.015625 Z M 156.164062 135.246094 C 155.867188 134.160156 155.5 133.085938 155.074219 132.03125 C 157.167969 133.804688 159.996094 134.269531 162.835938 134.359375 C 160.523438 134.839844 158.25 135.183594 156.164062 135.246094 Z M 216.960938 131.546875 C 216.140625 133.5 214.941406 135.183594 213.28125 135.828125 C 212.511719 136.125 211.6875 136.316406 210.847656 136.460938 C 212.355469 135.222656 213.429688 133.488281 214 131.53125 C 213.421875 132.027344 212.828125 132.386719 212.363281 132.398438 C 212.21875 132.402344 212.054688 132.398438 211.882812 132.390625 C 210.746094 134.640625 208.652344 135.988281 206.144531 136.371094 C 206.585938 134.4375 207.222656 132.53125 208.136719 130.78125 C 208.304688 130.457031 208.511719 130.152344 208.742188 129.859375 C 208.746094 129.65625 208.769531 129.4375 208.820312 129.199219 C 209.035156 128.183594 209.257812 127.429688 209.472656 126.859375 C 209.246094 127.015625 209.023438 127.175781 208.816406 127.34375 C 209.03125 126.820312 209.226562 126.285156 209.40625 125.742188 L 209.171875 125.90625 C 208.691406 127.269531 207.777344 128.632812 206.808594 129.632812 C 205.488281 130.992188 204.058594 131.667969 203.578125 131.425781 C 202.1875 132.203125 200.058594 132.867188 198.007812 133.140625 C 199.765625 132.40625 201.332031 131.304688 202.535156 129.621094 C 203.039062 128.917969 203.40625 128.144531 203.679688 127.332031 C 202.585938 128.644531 201.066406 129.507812 200.308594 129.730469 C 198.554688 131.511719 195.949219 132.28125 193.464844 132.59375 C 193.363281 131.785156 194.070312 130.085938 194.234375 129.574219 C 194.75 127.980469 195.519531 126.4375 196.484375 125.050781 C 197.078125 123.652344 197.902344 122 198.761719 120.671875 C 198.339844 120.9375 197.933594 121.214844 197.554688 121.511719 C 196.558594 123.40625 195 125.648438 193.1875 125.664062 C 190.535156 128.640625 185.660156 129.378906 181.816406 130.222656 C 182.011719 128.902344 182.53125 126.082031 184.011719 123.871094 C 183.105469 124.613281 181.714844 125.058594 180.296875 125.070312 C 178.601562 125.054688 176.941406 124.421875 176.101562 123.402344 C 176.101562 123.398438 176.101562 123.398438 176.097656 123.398438 C 177.730469 125.699219 178.472656 128.722656 178.691406 130.21875 C 174.714844 129.3125 170.363281 128.582031 167.46875 125.660156 C 165.511719 125.699219 163.84375 123.125 162.855469 121.148438 C 162.886719 121.222656 162.917969 121.296875 162.949219 121.375 C 162.59375 121.140625 162.230469 120.917969 161.851562 120.699219 C 162.550781 121.78125 163.222656 123.074219 163.769531 124.269531 C 165.496094 126.472656 166.050781 129.789062 166.636719 132.511719 C 164.332031 132.152344 162.128906 131.375 160.503906 129.78125 C 159.90625 129.695312 158.351562 128.902344 157.164062 127.613281 C 157.421875 128.304688 157.75 128.980469 158.167969 129.621094 C 159.039062 130.964844 160.230469 131.929688 161.574219 132.640625 C 159.964844 132.5 158.410156 132.164062 157.066406 131.402344 C 156.632812 131.71875 155.152344 131.035156 153.789062 129.632812 C 152.820312 128.636719 151.90625 127.269531 151.425781 125.90625 L 151.410156 125.894531 C 151.476562 126.085938 151.542969 126.273438 151.613281 126.460938 C 151.269531 126.148438 150.882812 125.851562 150.46875 125.578125 C 150.878906 126.160156 151.335938 127.132812 151.777344 129.203125 C 152.996094 130.929688 153.792969 133.039062 154.382812 135.105469 C 154.171875 135.128906 153.957031 135.152344 153.742188 135.171875 C 151.222656 134.917969 149.121094 134.074219 147.761719 132.289062 C 146.71875 131.878906 145.351562 130.390625 144.71875 129.394531 C 145.226562 131.941406 146.34375 133.703125 147.890625 134.878906 C 147.570312 134.8125 147.242188 134.769531 146.929688 134.679688 C 145.492188 134.28125 144.394531 133.0625 143.574219 131.527344 C 142.515625 131.179688 141.515625 130.152344 140.917969 129.410156 C 141.75 132.09375 143.136719 134.648438 145.222656 135.792969 C 147.65625 137.132812 149.890625 137.074219 153.824219 136.855469 C 165.144531 136.226562 174.789062 132.289062 180.746094 132.144531 C 185.941406 132.015625 190.96875 133.722656 195.714844 135.640625 C 198.660156 136.828125 201.820312 138.160156 205.03125 138.402344 C 216.597656 139.265625 217.457031 134.234375 218.125 132.554688 C 218.433594 131.773438 218.734375 130.972656 219.007812 130.164062 C 218.433594 130.746094 217.710938 131.316406 216.960938 131.546875 " fill-opacity="1" fill-rule="nonzero"/></g><path fill="#dcac42" d="M 173.273438 120.84375 C 173.789062 121.132812 174.289062 121.476562 174.761719 121.886719 C 174.894531 122.007812 175.023438 122.128906 175.148438 122.257812 C 175.152344 122.257812 175.152344 122.257812 175.152344 122.257812 C 174.492188 121.523438 173.390625 119.523438 172.9375 118.679688 C 172.960938 118.734375 172.984375 118.789062 173.007812 118.847656 C 172.359375 118.570312 171.683594 118.355469 170.992188 118.191406 C 171.515625 118.960938 172.402344 120 173.273438 120.84375 " fill-opacity="1" fill-rule="nonzero"/><path fill="#dcac42" d="M 189.171875 118.324219 C 188.496094 118.515625 187.835938 118.75 187.191406 119.042969 C 186.8125 119.84375 186.074219 121.332031 185.5 122.199219 C 185.921875 121.851562 186.375 121.542969 186.847656 121.269531 C 187.730469 120.355469 188.648438 119.179688 189.171875 118.324219 " fill-opacity="1" fill-rule="nonzero"/><path fill="#dcac42" d="M 173.96875 115.703125 C 173.953125 115.578125 173.941406 115.449219 173.933594 115.324219 C 173.378906 115.042969 172.652344 114.675781 172.125 114.4375 C 172.097656 114.828125 172.101562 115.21875 172.132812 115.609375 C 172.792969 115.609375 173.453125 115.667969 173.96875 115.703125 " fill-opacity="1" fill-rule="nonzero"/><path fill="#dcac42" d="M 174.726562 115.734375 C 174.726562 115.734375 174.691406 115.714844 174.621094 115.679688 C 174.65625 115.695312 174.691406 115.714844 174.726562 115.734375 " fill-opacity="1" fill-rule="nonzero"/><path fill="#dcac42" d="M 185.890625 115.441406 C 185.878906 115.449219 185.871094 115.457031 185.859375 115.460938 C 185.871094 115.457031 185.882812 115.449219 185.890625 115.441406 " fill-opacity="1" fill-rule="nonzero"/><path fill="#dcac42" d="M 188.007812 114.257812 C 188.007812 114.257812 187.132812 114.664062 186.226562 115.226562 C 186.222656 115.285156 186.214844 115.34375 186.210938 115.40625 C 186.722656 115.316406 187.441406 115.191406 188.035156 115.171875 C 188.042969 114.871094 188.035156 114.5625 188.007812 114.257812 " fill-opacity="1" fill-rule="nonzero"/><path fill="#03111f" d="M 184.671875 105.542969 L 184.816406 105.394531 L 184.816406 105.191406 L 184.671875 105.042969 L 184.464844 105.042969 L 184.320312 105.191406 L 184.320312 105.394531 L 184.464844 105.542969 L 184.671875 105.542969 " fill-opacity="1" fill-rule="nonzero"/><path fill="#03111f" d="M 184.351562 104.222656 L 184.207031 104.074219 L 184 104.074219 L 183.855469 104.222656 L 183.855469 104.425781 L 184 104.574219 L 184.207031 104.574219 L 184.351562 104.425781 L 184.351562 104.222656 " fill-opacity="1" fill-rule="nonzero"/><path fill="#03111f" d="M 183.714844 103.617188 L 183.859375 103.46875 L 183.859375 103.265625 L 183.714844 103.117188 L 183.507812 103.117188 L 183.363281 103.265625 L 183.363281 103.46875 L 183.507812 103.617188 L 183.714844 103.617188 " fill-opacity="1" fill-rule="nonzero"/><path fill="#03111f" d="M 183.175781 102.1875 L 182.972656 102.1875 L 182.824219 102.332031 L 182.824219 102.539062 L 182.972656 102.683594 L 183.175781 102.683594 L 183.324219 102.539062 L 183.324219 102.332031 L 183.175781 102.1875 " fill-opacity="1" fill-rule="nonzero"/><path fill="#03111f" d="M 182.386719 101.285156 L 182.242188 101.429688 L 182.242188 101.636719 L 182.386719 101.78125 L 182.59375 101.78125 L 182.738281 101.636719 L 182.738281 101.429688 L 182.59375 101.285156 L 182.386719 101.285156 " fill-opacity="1" fill-rule="nonzero"/><path fill="#03111f" d="M 181.644531 100.535156 L 181.5 100.679688 L 181.5 100.886719 L 181.644531 101.03125 L 181.851562 101.03125 L 181.996094 100.886719 L 181.996094 100.679688 L 181.851562 100.535156 L 181.644531 100.535156 " fill-opacity="1" fill-rule="nonzero"/><path fill="#03111f" d="M 180.976562 100.847656 L 181.121094 100.699219 L 181.121094 100.496094 L 180.976562 100.347656 L 180.769531 100.347656 L 180.621094 100.496094 L 180.621094 100.699219 L 180.769531 100.847656 L 180.976562 100.847656 " fill-opacity="1" fill-rule="nonzero"/><path fill="#03111f" d="M 180.117188 101.5 L 180.265625 101.351562 L 180.265625 101.148438 L 180.117188 101 L 179.914062 101 L 179.765625 101.148438 L 179.765625 101.351562 L 179.914062 101.5 L 180.117188 101.5 " fill-opacity="1" fill-rule="nonzero"/><path fill="#03111f" d="M 179.574219 101.972656 L 179.429688 101.824219 L 179.222656 101.824219 L 179.078125 101.972656 L 179.078125 102.179688 L 179.222656 102.324219 L 179.429688 102.324219 L 179.574219 102.179688 L 179.574219 101.972656 " fill-opacity="1" fill-rule="nonzero"/><path fill="#03111f" d="M 178.542969 102.660156 L 178.398438 102.804688 L 178.398438 103.011719 L 178.542969 103.15625 L 178.75 103.15625 L 178.894531 103.011719 L 178.894531 102.804688 L 178.75 102.660156 L 178.542969 102.660156 " fill-opacity="1" fill-rule="nonzero"/><path fill="#03111f" d="M 177.910156 103.527344 L 177.765625 103.675781 L 177.765625 103.878906 L 177.910156 104.027344 L 178.117188 104.027344 L 178.261719 103.878906 L 178.261719 103.675781 L 178.117188 103.527344 L 177.910156 103.527344 " fill-opacity="1" fill-rule="nonzero"/><path fill="#03111f" d="M 177.289062 104.40625 L 177.140625 104.550781 L 177.140625 104.757812 L 177.289062 104.902344 L 177.492188 104.902344 L 177.640625 104.757812 L 177.640625 104.550781 L 177.492188 104.40625 L 177.289062 104.40625 " fill-opacity="1" fill-rule="nonzero"/><path fill="#03111f" d="M 176.894531 105.796875 L 177.039062 105.652344 L 177.039062 105.445312 L 176.894531 105.300781 L 176.6875 105.300781 L 176.542969 105.445312 L 176.542969 105.652344 L 176.6875 105.796875 L 176.894531 105.796875 " fill-opacity="1" fill-rule="nonzero"/><path fill="#03111f" d="M 174.058594 111.34375 C 173.953125 111.15625 173.921875 110.578125 173.859375 110.578125 C 173.796875 110.578125 173.816406 111.199219 173.664062 111.347656 C 173.53125 111.484375 173.089844 111.480469 173.09375 111.5625 C 173.097656 111.648438 173.609375 111.652344 173.714844 111.808594 C 173.820312 111.96875 173.742188 112.539062 173.859375 112.546875 C 173.976562 112.550781 173.894531 111.949219 174.015625 111.800781 C 174.152344 111.636719 174.75 111.71875 174.726562 111.5625 C 174.71875 111.492188 174.148438 111.5 174.058594 111.34375 " fill-opacity="1" fill-rule="nonzero"/><path fill="#03111f" d="M 207.238281 129.902344 C 207.097656 129.652344 207.058594 128.894531 206.972656 128.894531 C 206.894531 128.894531 206.917969 129.707031 206.71875 129.90625 C 206.546875 130.085938 205.960938 130.082031 205.96875 130.1875 C 205.972656 130.300781 206.644531 130.304688 206.785156 130.511719 C 206.925781 130.722656 206.820312 131.472656 206.972656 131.480469 C 207.128906 131.488281 207.019531 130.695312 207.179688 130.5 C 207.359375 130.285156 208.144531 130.394531 208.117188 130.1875 C 208.105469 130.09375 207.351562 130.101562 207.238281 129.902344 " fill-opacity="1" fill-rule="nonzero"/><path fill="#03111f" d="M 153.613281 129.28125 C 153.472656 129.035156 153.433594 128.277344 153.347656 128.277344 C 153.269531 128.277344 153.289062 129.089844 153.09375 129.289062 C 152.917969 129.464844 152.335938 129.460938 152.34375 129.570312 C 152.347656 129.683594 153.019531 129.6875 153.160156 129.894531 C 153.300781 130.101562 153.195312 130.855469 153.347656 130.863281 C 153.503906 130.871094 153.394531 130.074219 153.554688 129.878906 C 153.734375 129.664062 154.519531 129.777344 154.492188 129.570312 C 154.480469 129.476562 153.726562 129.484375 153.613281 129.28125 " fill-opacity="1" fill-rule="nonzero"/><path fill="#03111f" d="M 194.738281 125.726562 C 194.601562 125.480469 194.558594 124.722656 194.476562 124.722656 C 194.398438 124.722656 194.417969 125.535156 194.222656 125.734375 C 194.046875 125.910156 193.464844 125.90625 193.46875 126.015625 C 193.476562 126.128906 194.148438 126.132812 194.289062 126.339844 C 194.425781 126.546875 194.320312 127.300781 194.476562 127.308594 C 194.628906 127.316406 194.523438 126.519531 194.683594 126.328125 C 194.863281 126.109375 195.648438 126.222656 195.617188 126.015625 C 195.605469 125.921875 194.855469 125.929688 194.738281 125.726562 " fill-opacity="1" fill-rule="nonzero"/><path fill="#03111f" d="M 176.917969 116.109375 L 176.714844 116.109375 L 176.566406 116.253906 L 176.566406 116.460938 L 176.714844 116.605469 L 176.917969 116.605469 L 177.066406 116.460938 L 177.066406 116.253906 L 176.917969 116.109375 " fill-opacity="1" fill-rule="nonzero"/><path fill="#03111f" d="M 175.820312 115.507812 L 175.671875 115.652344 L 175.671875 115.859375 L 175.820312 116.007812 L 176.027344 116.007812 L 176.171875 115.859375 L 176.171875 115.652344 L 176.023438 115.507812 L 175.820312 115.507812 " fill-opacity="1" fill-rule="nonzero"/><path fill="#03111f" d="M 174.925781 114.910156 L 174.78125 115.054688 L 174.78125 115.261719 L 174.925781 115.40625 L 175.132812 115.40625 L 175.277344 115.261719 L 175.277344 115.054688 L 175.132812 114.910156 L 174.925781 114.910156 " fill-opacity="1" fill-rule="nonzero"/><path fill="#03111f" d="M 174.03125 114.308594 L 173.886719 114.457031 L 173.886719 114.664062 L 174.03125 114.808594 L 174.238281 114.808594 L 174.382812 114.664062 L 174.382812 114.457031 L 174.238281 114.308594 L 174.03125 114.308594 " fill-opacity="1" fill-rule="nonzero"/><path fill="#03111f" d="M 173.121094 113.746094 L 172.976562 113.890625 L 172.976562 114.097656 L 173.121094 114.242188 L 173.328125 114.242188 L 173.472656 114.097656 L 173.472656 113.890625 L 173.328125 113.746094 L 173.121094 113.746094 " fill-opacity="1" fill-rule="nonzero"/><path fill="#03111f" d="M 172.125 113.332031 L 171.980469 113.480469 L 171.980469 113.6875 L 172.125 113.832031 L 172.332031 113.832031 L 172.476562 113.6875 L 172.476562 113.480469 L 172.332031 113.332031 L 172.125 113.332031 " fill-opacity="1" fill-rule="nonzero"/><path fill="#03111f" d="M 171.484375 113.066406 L 171.339844 112.921875 L 171.132812 112.921875 L 170.984375 113.066406 L 170.984375 113.273438 L 171.132812 113.421875 L 171.339844 113.421875 L 171.484375 113.273438 L 171.484375 113.066406 " fill-opacity="1" fill-rule="nonzero"/><path fill="#03111f" d="M 170.488281 112.65625 L 170.34375 112.511719 L 170.136719 112.511719 L 169.992188 112.65625 L 169.992188 112.863281 L 170.136719 113.007812 L 170.34375 113.007812 L 170.488281 112.863281 L 170.488281 112.65625 " fill-opacity="1" fill-rule="nonzero"/><path fill="#03111f" d="M 169.492188 112.257812 L 169.347656 112.113281 L 169.140625 112.113281 L 168.996094 112.257812 L 168.996094 112.464844 L 169.140625 112.609375 L 169.347656 112.609375 L 169.492188 112.464844 L 169.492188 112.257812 " fill-opacity="1" fill-rule="nonzero"/><path fill="#03111f" d="M 168.453125 111.980469 L 168.308594 111.832031 L 168.101562 111.832031 L 167.957031 111.980469 L 167.957031 112.183594 L 168.101562 112.328125 L 168.308594 112.328125 L 168.453125 112.183594 L 168.453125 111.980469 " fill-opacity="1" fill-rule="nonzero"/><path fill="#03111f" d="M 167.414062 111.90625 L 167.414062 111.699219 L 167.269531 111.554688 L 167.0625 111.554688 L 166.917969 111.699219 L 166.917969 111.90625 L 167.0625 112.050781 L 167.269531 112.050781 L 167.414062 111.90625 " fill-opacity="1" fill-rule="nonzero"/><path fill="#03111f" d="M 166.375 111.628906 L 166.375 111.421875 L 166.230469 111.277344 L 166.023438 111.277344 L 165.875 111.421875 L 165.878906 111.628906 L 166.023438 111.773438 L 166.230469 111.773438 L 166.375 111.628906 " fill-opacity="1" fill-rule="nonzero"/><path fill="#03111f" d="M 165.179688 111.046875 L 164.972656 111.046875 L 164.828125 111.191406 L 164.828125 111.398438 L 164.972656 111.542969 L 165.179688 111.542969 L 165.324219 111.398438 L 165.324219 111.191406 L 165.179688 111.046875 " fill-opacity="1" fill-rule="nonzero"/><path fill="#03111f" d="M 163.914062 110.859375 L 163.769531 111.003906 L 163.769531 111.210938 L 163.914062 111.355469 L 164.117188 111.355469 L 164.265625 111.210938 L 164.265625 111.003906 L 164.117188 110.859375 L 163.914062 110.859375 " fill-opacity="1" fill-rule="nonzero"/><path fill="#03111f" d="M 162.855469 110.671875 L 162.707031 110.820312 L 162.707031 111.027344 L 162.855469 111.171875 L 163.058594 111.171875 L 163.203125 111.027344 L 163.203125 110.820312 L 163.058594 110.671875 L 162.855469 110.671875 " fill-opacity="1" fill-rule="nonzero"/><path fill="#03111f" d="M 161.785156 110.550781 L 161.640625 110.695312 L 161.640625 110.902344 L 161.785156 111.046875 L 161.992188 111.046875 L 162.136719 110.902344 L 162.136719 110.695312 L 161.992188 110.550781 L 161.785156 110.550781 " fill-opacity="1" fill-rule="nonzero"/><path fill="#03111f" d="M 161.355469 121.25 L 161.207031 121.398438 L 161.207031 121.601562 L 161.355469 121.75 L 161.558594 121.75 L 161.707031 121.601562 L 161.707031 121.398438 L 161.558594 121.25 L 161.355469 121.25 " fill-opacity="1" fill-rule="nonzero"/><path fill="#03111f" d="M 160.371094 120.816406 L 160.222656 120.960938 L 160.222656 121.167969 L 160.371094 121.3125 L 160.578125 121.3125 L 160.722656 121.167969 L 160.722656 120.960938 L 160.578125 120.816406 L 160.371094 120.816406 " fill-opacity="1" fill-rule="nonzero"/><path fill="#03111f" d="M 159.59375 120.378906 L 159.386719 120.378906 L 159.242188 120.527344 L 159.242188 120.730469 L 159.386719 120.878906 L 159.59375 120.878906 L 159.738281 120.730469 L 159.738281 120.527344 L 159.59375 120.378906 " fill-opacity="1" fill-rule="nonzero"/><path fill="#03111f" d="M 158.402344 119.945312 L 158.257812 120.089844 L 158.257812 120.296875 L 158.402344 120.441406 L 158.609375 120.441406 L 158.753906 120.296875 L 158.753906 120.089844 L 158.609375 119.945312 L 158.402344 119.945312 " fill-opacity="1" fill-rule="nonzero"/><path fill="#03111f" d="M 157.417969 119.507812 L 157.273438 119.65625 L 157.273438 119.859375 L 157.417969 120.007812 L 157.625 120.007812 L 157.769531 119.859375 L 157.769531 119.65625 L 157.625 119.507812 L 157.417969 119.507812 " fill-opacity="1" fill-rule="nonzero"/><path fill="#03111f" d="M 156.375 119.25 L 156.230469 119.394531 L 156.230469 119.601562 L 156.375 119.746094 L 156.582031 119.746094 L 156.726562 119.601562 L 156.726562 119.394531 L 156.582031 119.25 L 156.375 119.25 " fill-opacity="1" fill-rule="nonzero"/><path fill="#03111f" d="M 155.328125 119 L 155.183594 119.148438 L 155.183594 119.355469 L 155.328125 119.5 L 155.535156 119.5 L 155.679688 119.355469 L 155.679688 119.148438 L 155.535156 119 L 155.328125 119 " fill-opacity="1" fill-rule="nonzero"/><path fill="#03111f" d="M 154.28125 118.753906 L 154.136719 118.898438 L 154.136719 119.105469 L 154.28125 119.25 L 154.488281 119.25 L 154.632812 119.105469 L 154.632812 118.898438 L 154.488281 118.753906 L 154.28125 118.753906 " fill-opacity="1" fill-rule="nonzero"/><path fill="#03111f" d="M 153.433594 119.058594 L 153.578125 118.914062 L 153.578125 118.707031 L 153.433594 118.5625 L 153.226562 118.5625 L 153.082031 118.707031 L 153.082031 118.914062 L 153.226562 119.058594 L 153.433594 119.058594 " fill-opacity="1" fill-rule="nonzero"/><path fill="#03111f" d="M 152.503906 118.832031 L 152.503906 118.628906 L 152.359375 118.484375 L 152.152344 118.484375 L 152.007812 118.628906 L 152.007812 118.832031 L 152.152344 118.980469 L 152.359375 118.980469 L 152.503906 118.832031 " fill-opacity="1" fill-rule="nonzero"/><path fill="#03111f" d="M 151.082031 118.402344 L 150.933594 118.550781 L 150.933594 118.753906 L 151.082031 118.902344 L 151.285156 118.902344 L 151.433594 118.753906 L 151.433594 118.550781 L 151.285156 118.402344 L 151.082031 118.402344 " fill-opacity="1" fill-rule="nonzero"/><path fill="#03111f" d="M 148.804688 125.398438 L 148.660156 125.546875 L 148.660156 125.75 L 148.804688 125.898438 L 149.011719 125.898438 L 149.15625 125.75 L 149.15625 125.546875 L 149.011719 125.398438 L 148.804688 125.398438 " fill-opacity="1" fill-rule="nonzero"/><path fill="#03111f" d="M 147.808594 124.996094 L 147.660156 125.144531 L 147.660156 125.347656 L 147.808594 125.496094 L 148.011719 125.496094 L 148.15625 125.347656 L 148.15625 125.144531 L 148.011719 124.996094 L 147.808594 124.996094 " fill-opacity="1" fill-rule="nonzero"/><path fill="#03111f" d="M 146.808594 124.59375 L 146.664062 124.742188 L 146.664062 124.945312 L 146.808594 125.09375 L 147.015625 125.09375 L 147.160156 124.945312 L 147.160156 124.742188 L 147.015625 124.59375 L 146.808594 124.59375 " fill-opacity="1" fill-rule="nonzero"/><path fill="#03111f" d="M 146.011719 124.207031 L 145.808594 124.207031 L 145.660156 124.351562 L 145.660156 124.558594 L 145.808594 124.703125 L 146.011719 124.703125 L 146.160156 124.558594 L 146.160156 124.351562 L 146.011719 124.207031 " fill-opacity="1" fill-rule="nonzero"/><path fill="#03111f" d="M 144.75 124.007812 L 144.605469 124.152344 L 144.605469 124.359375 L 144.75 124.503906 L 144.957031 124.503906 L 145.101562 124.359375 L 145.101562 124.152344 L 144.957031 124.007812 L 144.75 124.007812 " fill-opacity="1" fill-rule="nonzero"/><path fill="#03111f" d="M 143.691406 123.808594 L 143.546875 123.953125 L 143.546875 124.160156 L 143.691406 124.304688 L 143.898438 124.304688 L 144.042969 124.160156 L 144.042969 123.953125 L 143.898438 123.808594 L 143.691406 123.808594 " fill-opacity="1" fill-rule="nonzero"/><path fill="#03111f" d="M 142.636719 123.609375 L 142.488281 123.753906 L 142.488281 123.960938 L 142.636719 124.105469 L 142.84375 124.105469 L 142.988281 123.960938 L 142.988281 123.753906 L 142.84375 123.609375 L 142.636719 123.609375 " fill-opacity="1" fill-rule="nonzero"/><path fill="#03111f" d="M 141.5625 123.582031 L 141.414062 123.726562 L 141.414062 123.933594 L 141.5625 124.078125 L 141.765625 124.078125 L 141.910156 123.933594 L 141.910156 123.726562 L 141.765625 123.582031 L 141.5625 123.582031 " fill-opacity="1" fill-rule="nonzero"/><path fill="#03111f" d="M 140.484375 123.5625 L 140.339844 123.707031 L 140.339844 123.914062 L 140.484375 124.058594 L 140.691406 124.058594 L 140.835938 123.914062 L 140.835938 123.707031 L 140.691406 123.5625 L 140.484375 123.5625 " fill-opacity="1" fill-rule="nonzero"/><path fill="#03111f" d="M 183.652344 115.769531 L 183.507812 115.914062 L 183.507812 116.121094 L 183.652344 116.265625 L 183.859375 116.265625 L 184.003906 116.121094 L 184.003906 115.914062 L 183.859375 115.769531 L 183.652344 115.769531 " fill-opacity="1" fill-rule="nonzero"/><path fill="#03111f" d="M 184.550781 115.175781 L 184.40625 115.324219 L 184.40625 115.527344 L 184.550781 115.675781 L 184.757812 115.675781 L 184.902344 115.527344 L 184.902344 115.324219 L 184.757812 115.175781 L 184.550781 115.175781 " fill-opacity="1" fill-rule="nonzero"/><path fill="#03111f" d="M 185.449219 114.585938 L 185.304688 114.730469 L 185.304688 114.9375 L 185.449219 115.082031 L 185.65625 115.082031 L 185.800781 114.9375 L 185.800781 114.730469 L 185.65625 114.585938 L 185.449219 114.585938 " fill-opacity="1" fill-rule="nonzero"/><path fill="#03111f" d="M 186.347656 113.992188 L 186.203125 114.136719 L 186.203125 114.34375 L 186.347656 114.488281 L 186.554688 114.488281 L 186.699219 114.34375 L 186.699219 114.136719 L 186.554688 113.992188 L 186.347656 113.992188 " fill-opacity="1" fill-rule="nonzero"/><path fill="#03111f" d="M 187.605469 113.566406 L 187.460938 113.421875 L 187.257812 113.421875 L 187.109375 113.566406 L 187.109375 113.773438 L 187.257812 113.917969 L 187.460938 113.917969 L 187.605469 113.773438 L 187.605469 113.566406 " fill-opacity="1" fill-rule="nonzero"/><path fill="#03111f" d="M 188.609375 113.175781 L 188.464844 113.03125 L 188.257812 113.03125 L 188.113281 113.175781 L 188.113281 113.382812 L 188.257812 113.527344 L 188.464844 113.527344 L 188.609375 113.382812 L 188.609375 113.175781 " fill-opacity="1" fill-rule="nonzero"/><path fill="#03111f" d="M 189.613281 112.785156 L 189.46875 112.640625 L 189.261719 112.640625 L 189.117188 112.785156 L 189.117188 112.992188 L 189.261719 113.136719 L 189.46875 113.136719 L 189.613281 112.992188 L 189.613281 112.785156 " fill-opacity="1" fill-rule="nonzero"/><path fill="#03111f" d="M 190.617188 112.394531 L 190.46875 112.25 L 190.261719 112.25 L 190.117188 112.394531 L 190.117188 112.601562 L 190.261719 112.746094 L 190.46875 112.746094 L 190.617188 112.601562 L 190.617188 112.394531 " fill-opacity="1" fill-rule="nonzero"/><path fill="#03111f" d="M 191.269531 111.867188 L 191.121094 112.011719 L 191.121094 112.21875 L 191.269531 112.363281 L 191.472656 112.363281 L 191.621094 112.21875 L 191.621094 112.011719 L 191.472656 111.867188 L 191.269531 111.867188 " fill-opacity="1" fill-rule="nonzero"/><path fill="#03111f" d="M 192.316406 111.617188 L 192.167969 111.765625 L 192.167969 111.96875 L 192.316406 112.117188 L 192.519531 112.117188 L 192.667969 111.96875 L 192.667969 111.765625 L 192.519531 111.617188 L 192.316406 111.617188 " fill-opacity="1" fill-rule="nonzero"/><path fill="#03111f" d="M 193.714844 111.722656 L 193.714844 111.515625 L 193.566406 111.371094 L 193.363281 111.371094 L 193.214844 111.515625 L 193.214844 111.722656 L 193.363281 111.867188 L 193.566406 111.867188 L 193.714844 111.722656 " fill-opacity="1" fill-rule="nonzero"/><path fill="#03111f" d="M 194.613281 111.621094 L 194.761719 111.476562 L 194.761719 111.269531 L 194.613281 111.125 L 194.410156 111.125 L 194.261719 111.269531 L 194.261719 111.476562 L 194.410156 111.621094 L 194.613281 111.621094 " fill-opacity="1" fill-rule="nonzero"/><path fill="#03111f" d="M 195.671875 110.925781 L 195.464844 110.925781 L 195.320312 111.070312 L 195.320312 111.277344 L 195.464844 111.425781 L 195.671875 111.425781 L 195.816406 111.277344 L 195.816406 111.070312 L 195.671875 110.925781 " fill-opacity="1" fill-rule="nonzero"/><path fill="#03111f" d="M 196.53125 110.78125 L 196.386719 110.925781 L 196.386719 111.128906 L 196.53125 111.277344 L 196.738281 111.277344 L 196.882812 111.128906 L 196.882812 110.925781 L 196.738281 110.78125 L 196.53125 110.78125 " fill-opacity="1" fill-rule="nonzero"/><path fill="#03111f" d="M 197.597656 110.632812 L 197.453125 110.777344 L 197.453125 110.984375 L 197.597656 111.128906 L 197.800781 111.128906 L 197.949219 110.984375 L 197.949219 110.777344 L 197.800781 110.632812 L 197.597656 110.632812 " fill-opacity="1" fill-rule="nonzero"/><path fill="#03111f" d="M 198.667969 110.550781 L 198.523438 110.695312 L 198.523438 110.902344 L 198.667969 111.046875 L 198.875 111.046875 L 199.019531 110.902344 L 199.019531 110.695312 L 198.875 110.550781 L 198.667969 110.550781 " fill-opacity="1" fill-rule="nonzero"/><path fill="#03111f" d="M 200.074219 120.527344 L 199.925781 120.671875 L 199.925781 120.878906 L 200.074219 121.023438 L 200.28125 121.023438 L 200.425781 120.878906 L 200.425781 120.671875 L 200.28125 120.523438 L 200.074219 120.527344 " fill-opacity="1" fill-rule="nonzero"/><path fill="#03111f" d="M 201.0625 120.105469 L 200.917969 120.25 L 200.917969 120.457031 L 201.0625 120.601562 L 201.269531 120.601562 L 201.414062 120.457031 L 201.414062 120.25 L 201.269531 120.105469 L 201.0625 120.105469 " fill-opacity="1" fill-rule="nonzero"/><path fill="#03111f" d="M 202.257812 119.683594 L 202.054688 119.683594 L 201.910156 119.832031 L 201.910156 120.035156 L 202.054688 120.179688 L 202.257812 120.179688 L 202.40625 120.035156 L 202.40625 119.832031 L 202.257812 119.683594 " fill-opacity="1" fill-rule="nonzero"/><path fill="#03111f" d="M 203.25 119.261719 L 203.042969 119.261719 L 202.898438 119.410156 L 202.898438 119.617188 L 203.042969 119.761719 L 203.25 119.761719 L 203.394531 119.617188 L 203.394531 119.410156 L 203.25 119.261719 " fill-opacity="1" fill-rule="nonzero"/><path fill="#03111f" d="M 204.0625 118.933594 L 203.917969 119.082031 L 203.917969 119.289062 L 204.0625 119.433594 L 204.269531 119.433594 L 204.414062 119.289062 L 204.414062 119.082031 L 204.269531 118.933594 L 204.0625 118.933594 " fill-opacity="1" fill-rule="nonzero"/><path fill="#03111f" d="M 205.320312 118.714844 L 205.117188 118.714844 L 204.96875 118.859375 L 204.96875 119.066406 L 205.117188 119.210938 L 205.320312 119.210938 L 205.46875 119.0625 L 205.46875 118.859375 L 205.320312 118.714844 " fill-opacity="1" fill-rule="nonzero"/><path fill="#03111f" d="M 206.375 118.988281 L 206.519531 118.84375 L 206.519531 118.636719 L 206.375 118.492188 L 206.167969 118.492188 L 206.023438 118.636719 L 206.023438 118.84375 L 206.167969 118.988281 L 206.375 118.988281 " fill-opacity="1" fill-rule="nonzero"/><path fill="#03111f" d="M 207.429688 118.792969 L 207.578125 118.644531 L 207.578125 118.441406 L 207.429688 118.292969 L 207.222656 118.292969 L 207.078125 118.441406 L 207.078125 118.644531 L 207.222656 118.792969 L 207.429688 118.792969 " fill-opacity="1" fill-rule="nonzero"/><path fill="#03111f" d="M 208.503906 118.242188 L 208.300781 118.242188 L 208.152344 118.386719 L 208.152344 118.59375 L 208.300781 118.738281 L 208.503906 118.738281 L 208.648438 118.59375 L 208.648438 118.386719 L 208.503906 118.242188 " fill-opacity="1" fill-rule="nonzero"/><path fill="#03111f" d="M 209.375 118.1875 L 209.226562 118.332031 L 209.226562 118.539062 L 209.375 118.683594 L 209.578125 118.683594 L 209.726562 118.539062 L 209.726562 118.332031 L 209.578125 118.1875 L 209.375 118.1875 " fill-opacity="1" fill-rule="nonzero"/><path fill="#03111f" d="M 211 126.664062 L 210.851562 126.808594 L 210.851562 127.015625 L 211 127.160156 L 211.203125 127.160156 L 211.347656 127.015625 L 211.347656 126.808594 L 211.203125 126.664062 L 211 126.664062 " fill-opacity="1" fill-rule="nonzero"/><path fill="#03111f" d="M 211.996094 126.261719 L 211.851562 126.410156 L 211.851562 126.613281 L 211.996094 126.761719 L 212.203125 126.761719 L 212.347656 126.613281 L 212.347656 126.410156 L 212.203125 126.261719 L 211.996094 126.261719 " fill-opacity="1" fill-rule="nonzero"/><path fill="#03111f" d="M 213.199219 125.863281 L 212.996094 125.863281 L 212.847656 126.007812 L 212.847656 126.214844 L 212.996094 126.359375 L 213.199219 126.359375 L 213.347656 126.214844 L 213.347656 126.007812 L 213.199219 125.863281 " fill-opacity="1" fill-rule="nonzero"/><path fill="#03111f" d="M 213.992188 125.460938 L 213.847656 125.605469 L 213.847656 125.8125 L 213.992188 125.957031 L 214.199219 125.957031 L 214.34375 125.8125 L 214.34375 125.605469 L 214.199219 125.460938 L 213.992188 125.460938 " fill-opacity="1" fill-rule="nonzero"/><path fill="#03111f" d="M 215.050781 125.261719 L 214.902344 125.40625 L 214.902344 125.613281 L 215.050781 125.757812 L 215.253906 125.757812 L 215.402344 125.613281 L 215.402344 125.40625 L 215.253906 125.261719 L 215.050781 125.261719 " fill-opacity="1" fill-rule="nonzero"/><path fill="#03111f" d="M 216.3125 125.066406 L 216.105469 125.066406 L 215.960938 125.210938 L 215.960938 125.417969 L 216.105469 125.5625 L 216.3125 125.5625 L 216.460938 125.417969 L 216.460938 125.210938 L 216.3125 125.066406 " fill-opacity="1" fill-rule="nonzero"/><path fill="#03111f" d="M 217.164062 124.871094 L 217.019531 125.015625 L 217.019531 125.222656 L 217.164062 125.367188 L 217.371094 125.367188 L 217.515625 125.222656 L 217.515625 125.015625 L 217.371094 124.871094 L 217.164062 124.871094 " fill-opacity="1" fill-rule="nonzero"/><path fill="#03111f" d="M 218.238281 124.847656 L 218.09375 124.992188 L 218.09375 125.199219 L 218.238281 125.34375 L 218.445312 125.34375 L 218.59375 125.199219 L 218.59375 124.992188 L 218.445312 124.847656 L 218.238281 124.847656 " fill-opacity="1" fill-rule="nonzero"/><path fill="#03111f" d="M 219.667969 124.976562 L 219.523438 124.832031 L 219.316406 124.832031 L 219.171875 124.976562 L 219.171875 125.183594 L 219.316406 125.328125 L 219.523438 125.328125 L 219.667969 125.183594 L 219.667969 124.976562 " fill-opacity="1" fill-rule="nonzero"/><path fill="#03111f" d="M 172.839844 119.355469 L 172.636719 119.355469 L 172.492188 119.503906 L 172.492188 119.710938 L 172.636719 119.855469 L 172.839844 119.855469 L 172.988281 119.710938 L 172.988281 119.503906 L 172.839844 119.355469 " fill-opacity="1" fill-rule="nonzero"/><path fill="#03111f" d="M 171.625 118.992188 L 171.476562 119.136719 L 171.476562 119.34375 L 171.625 119.488281 L 171.832031 119.488281 L 171.976562 119.34375 L 171.976562 119.136719 L 171.832031 118.992188 L 171.625 118.992188 " fill-opacity="1" fill-rule="nonzero"/><path fill="#03111f" d="M 170.597656 118.671875 L 170.453125 118.820312 L 170.453125 119.027344 L 170.597656 119.171875 L 170.804688 119.171875 L 170.953125 119.027344 L 170.953125 118.820312 L 170.804688 118.671875 L 170.597656 118.671875 " fill-opacity="1" fill-rule="nonzero"/><path fill="#03111f" d="M 169.75 118.472656 L 169.542969 118.472656 L 169.394531 118.621094 L 169.394531 118.828125 L 169.542969 118.972656 L 169.75 118.972656 L 169.894531 118.828125 L 169.894531 118.621094 L 169.75 118.472656 " fill-opacity="1" fill-rule="nonzero"/><path fill="#03111f" d="M 168.484375 118.289062 L 168.335938 118.433594 L 168.335938 118.640625 L 168.484375 118.785156 L 168.6875 118.785156 L 168.835938 118.640625 L 168.835938 118.433594 L 168.6875 118.289062 L 168.484375 118.289062 " fill-opacity="1" fill-rule="nonzero"/><path fill="#03111f" d="M 167.410156 118.210938 L 167.265625 118.359375 L 167.265625 118.5625 L 167.410156 118.710938 L 167.617188 118.710938 L 167.761719 118.5625 L 167.761719 118.359375 L 167.617188 118.210938 L 167.410156 118.210938 " fill-opacity="1" fill-rule="nonzero"/><path fill="#03111f" d="M 166.335938 118.183594 L 166.191406 118.328125 L 166.191406 118.535156 L 166.335938 118.679688 L 166.542969 118.679688 L 166.6875 118.535156 L 166.6875 118.328125 L 166.542969 118.183594 L 166.335938 118.183594 " fill-opacity="1" fill-rule="nonzero"/><path fill="#03111f" d="M 187.648438 119.578125 L 187.503906 119.722656 L 187.503906 119.929688 L 187.648438 120.074219 L 187.855469 120.074219 L 188 119.929688 L 188 119.722656 L 187.855469 119.578125 L 187.648438 119.578125 " fill-opacity="1" fill-rule="nonzero"/><path fill="#03111f" d="M 188.660156 119.210938 L 188.515625 119.359375 L 188.515625 119.5625 L 188.660156 119.710938 L 188.867188 119.710938 L 189.011719 119.5625 L 189.011719 119.359375 L 188.867188 119.210938 L 188.660156 119.210938 " fill-opacity="1" fill-rule="nonzero"/><path fill="#03111f" d="M 189.890625 118.894531 L 189.683594 118.894531 L 189.539062 119.039062 L 189.539062 119.246094 L 189.683594 119.390625 L 189.890625 119.390625 L 190.035156 119.246094 L 190.035156 119.039062 L 189.890625 118.894531 " fill-opacity="1" fill-rule="nonzero"/><path fill="#03111f" d="M 190.742188 118.695312 L 190.597656 118.839844 L 190.597656 119.046875 L 190.742188 119.191406 L 190.949219 119.191406 L 191.09375 119.046875 L 191.09375 118.839844 L 190.949219 118.695312 L 190.742188 118.695312 " fill-opacity="1" fill-rule="nonzero"/><path fill="#03111f" d="M 191.800781 118.507812 L 191.65625 118.65625 L 191.65625 118.859375 L 191.800781 119.007812 L 192.007812 119.007812 L 192.152344 118.859375 L 192.152344 118.65625 L 192.007812 118.507812 L 191.800781 118.507812 " fill-opacity="1" fill-rule="nonzero"/><path fill="#03111f" d="M 192.875 118.433594 L 192.730469 118.578125 L 192.730469 118.785156 L 192.875 118.929688 L 193.082031 118.929688 L 193.226562 118.785156 L 193.226562 118.578125 L 193.082031 118.433594 L 192.875 118.433594 " fill-opacity="1" fill-rule="nonzero"/><path fill="#03111f" d="M 194.15625 118.902344 L 194.300781 118.757812 L 194.300781 118.550781 L 194.15625 118.40625 L 193.949219 118.40625 L 193.804688 118.550781 L 193.804688 118.757812 L 193.949219 118.902344 L 194.15625 118.902344 " fill-opacity="1" fill-rule="nonzero"/><path fill="#03111f" d="M 180.667969 129.410156 C 180.613281 129.386719 180.085938 129.394531 180.027344 129.410156 C 179.964844 129.429688 179.59375 129.804688 179.570312 129.863281 C 179.550781 129.925781 179.546875 130.433594 179.570312 130.507812 C 179.597656 130.582031 179.992188 130.925781 180.027344 130.960938 C 180.0625 130.996094 180.601562 130.984375 180.667969 130.960938 C 180.734375 130.9375 181.105469 130.5625 181.121094 130.507812 C 181.140625 130.453125 181.136719 129.921875 181.121094 129.863281 C 181.109375 129.808594 180.71875 129.4375 180.667969 129.410156 " fill-opacity="1" fill-rule="nonzero"/><path fill="#03111f" d="M 180.667969 126.675781 C 180.613281 126.648438 180.085938 126.660156 180.027344 126.675781 C 179.964844 126.695312 179.59375 127.070312 179.570312 127.128906 C 179.550781 127.191406 179.546875 127.699219 179.570312 127.773438 C 179.597656 127.847656 179.992188 128.191406 180.027344 128.226562 C 180.0625 128.261719 180.601562 128.25 180.667969 128.226562 C 180.734375 128.203125 181.105469 127.828125 181.121094 127.773438 C 181.140625 127.71875 181.136719 127.1875 181.121094 127.128906 C 181.109375 127.074219 180.71875 126.703125 180.667969 126.675781 " fill-opacity="1" fill-rule="nonzero"/><path fill="#03111f" d="M 180.667969 123.941406 C 180.617188 123.917969 180.085938 123.925781 180.027344 123.941406 C 179.96875 123.960938 179.59375 124.335938 179.570312 124.398438 C 179.550781 124.457031 179.550781 124.964844 179.574219 125.039062 C 179.597656 125.113281 179.992188 125.457031 180.027344 125.492188 C 180.0625 125.527344 180.601562 125.519531 180.667969 125.492188 C 180.734375 125.46875 181.105469 125.09375 181.121094 125.039062 C 181.140625 124.984375 181.136719 124.453125 181.121094 124.398438 C 181.109375 124.339844 180.722656 123.96875 180.667969 123.941406 " fill-opacity="1" fill-rule="nonzero"/></svg>