<svg xmlns="http://www.w3.org/2000/svg" xmlns:xlink="http://www.w3.org/1999/xlink" width="300" zoomAndPan="magnify" viewBox="0 0 224.87999 37.5" height="50" preserveAspectRatio="xMidYMid meet" version="1.0"><defs><g/></defs><path stroke-linecap="butt" transform="matrix(0.740132, -0.000000000000000367, 0.000000000000000367, 0.740132, 4.826148, 29.292494)" fill="none" stroke-linejoin="miter" d="M 3.749893 0.50203 L 287.045183 0.50203 " stroke="#ccb13b" stroke-width="1" stroke-opacity="1" stroke-miterlimit="4"/><path stroke-linecap="round" transform="matrix(0.740132, -0.000000000000000367, 0.000000000000000367, 0.740132, 4.826148, 29.292494)" fill-opacity="1" fill="#ccb13b" fill-rule="nonzero" stroke-linejoin="round" d="M 0.498782 0.50203 C 0.498782 -0.326581 1.16906 -1.002136 1.997671 -1.002136 C 2.826282 -1.002136 3.501838 -0.326581 3.501838 0.50203 C 3.501838 1.330642 2.826282 2.000919 1.997671 2.000919 C 1.16906 2.000919 0.498782 1.330642 0.498782 0.50203 " stroke="#ccb13b" stroke-width="1" stroke-opacity="1" stroke-miterlimit="4"/><path stroke-linecap="round" transform="matrix(0.740132, -0.000000000000000367, 0.000000000000000367, 0.740132, 4.826148, 29.292494)" fill-opacity="1" fill="#ccb13b" fill-rule="nonzero" stroke-linejoin="round" d="M 290.296294 0.50203 C 290.296294 1.330642 289.626016 2.000919 288.797405 2.000919 C 287.968794 2.000919 287.298516 1.330642 287.298516 0.50203 C 287.298516 -0.326581 287.968794 -1.002136 288.797405 -1.002136 C 289.626016 -1.002136 290.296294 -0.326581 290.296294 0.50203 " stroke="#ccb13b" stroke-width="1" stroke-opacity="1" stroke-miterlimit="4"/><g fill="#ccb13b" fill-opacity="1"><g transform="translate(57.273011, 17.450167)"><g><path d="M 10.0625 -8.90625 L 10.0625 0 C 10.0625 0 10.003906 0 9.890625 0 C 9.773438 0 9.601562 0 9.375 0 C 9.132812 0 8.957031 0 8.84375 0 C 8.738281 0 8.6875 0 8.6875 0 L 8.6875 -5.828125 L 6.203125 -0.4375 L 4.96875 -0.4375 L 2.53125 -5.71875 L 2.53125 0 C 2.53125 0 2.472656 0 2.359375 0 C 2.242188 0 2.070312 0 1.84375 0 C 1.601562 0 1.425781 0 1.3125 0 C 1.195312 0 1.140625 0 1.140625 0 L 1.140625 -8.90625 C 1.140625 -8.90625 1.25 -8.90625 1.46875 -8.90625 C 1.6875 -8.90625 2.007812 -8.90625 2.4375 -8.90625 L 5.65625 -2.53125 L 8.765625 -8.90625 C 9.191406 -8.90625 9.515625 -8.90625 9.734375 -8.90625 C 9.953125 -8.90625 10.0625 -8.90625 10.0625 -8.90625 Z M 10.0625 -8.90625 "/></g></g></g><g fill="#ccb13b" fill-opacity="1"><g transform="translate(71.608098, 17.450167)"><g><path d="M 1.140625 0 L 1.140625 -8.90625 C 1.140625 -8.90625 1.195312 -8.90625 1.3125 -8.90625 C 1.425781 -8.90625 1.601562 -8.90625 1.84375 -8.90625 C 2.070312 -8.90625 2.242188 -8.90625 2.359375 -8.90625 C 2.472656 -8.90625 2.53125 -8.90625 2.53125 -8.90625 L 2.53125 0 C 2.53125 0 2.472656 0 2.359375 0 C 2.242188 0 2.070312 0 1.84375 0 C 1.601562 0 1.425781 0 1.3125 0 C 1.195312 0 1.140625 0 1.140625 0 Z M 1.140625 0 "/></g></g></g><g fill="#ccb13b" fill-opacity="1"><g transform="translate(78.410506, 17.450167)"><g><path d="M 4.03125 0.109375 C 3.539062 0.109375 3.066406 0.03125 2.609375 -0.125 C 2.148438 -0.28125 1.75 -0.5 1.40625 -0.78125 C 1.070312 -1.070312 0.832031 -1.398438 0.6875 -1.765625 L 1.984375 -2.125 C 2.054688 -1.945312 2.195312 -1.78125 2.40625 -1.625 C 2.613281 -1.476562 2.863281 -1.359375 3.15625 -1.265625 C 3.445312 -1.171875 3.738281 -1.125 4.03125 -1.125 C 4.394531 -1.125 4.726562 -1.175781 5.03125 -1.28125 C 5.332031 -1.382812 5.578125 -1.53125 5.765625 -1.71875 C 5.953125 -1.914062 6.046875 -2.148438 6.046875 -2.421875 C 6.046875 -2.816406 5.882812 -3.160156 5.5625 -3.453125 C 5.25 -3.753906 4.753906 -3.929688 4.078125 -3.984375 C 3.097656 -4.078125 2.328125 -4.359375 1.765625 -4.828125 C 1.203125 -5.296875 0.921875 -5.890625 0.921875 -6.609375 C 0.921875 -7.128906 1.070312 -7.566406 1.375 -7.921875 C 1.675781 -8.285156 2.082031 -8.554688 2.59375 -8.734375 C 3.101562 -8.921875 3.671875 -9.015625 4.296875 -9.015625 C 4.992188 -9.015625 5.5625 -8.878906 6 -8.609375 C 6.4375 -8.347656 6.832031 -7.941406 7.1875 -7.390625 L 6.125 -6.703125 C 5.925781 -7.054688 5.675781 -7.320312 5.375 -7.5 C 5.070312 -7.6875 4.675781 -7.78125 4.1875 -7.78125 C 3.632812 -7.78125 3.175781 -7.679688 2.8125 -7.484375 C 2.445312 -7.285156 2.265625 -6.988281 2.265625 -6.59375 C 2.265625 -6.34375 2.332031 -6.113281 2.46875 -5.90625 C 2.601562 -5.707031 2.828125 -5.539062 3.140625 -5.40625 C 3.460938 -5.28125 3.910156 -5.191406 4.484375 -5.140625 C 5.378906 -5.078125 6.085938 -4.804688 6.609375 -4.328125 C 7.140625 -3.859375 7.40625 -3.238281 7.40625 -2.46875 C 7.40625 -1.925781 7.25 -1.460938 6.9375 -1.078125 C 6.632812 -0.691406 6.226562 -0.394531 5.71875 -0.1875 C 5.21875 0.0078125 4.65625 0.109375 4.03125 0.109375 Z M 4.03125 0.109375 "/></g></g></g><g fill="#ccb13b" fill-opacity="1"><g transform="translate(89.595564, 17.450167)"><g/></g></g><g fill="#ccb13b" fill-opacity="1"><g transform="translate(96.83167, 17.450167)"><g><path d="M 2.765625 0 L 2.109375 0 L 2.109375 -7.328125 L 1.484375 -7 L 0.796875 -8.203125 L 2.09375 -8.90625 L 3.453125 -8.90625 L 3.453125 0 Z M 2.765625 0 "/></g></g></g><g fill="#ccb13b" fill-opacity="1"><g transform="translate(104.558542, 17.450167)"><g><path d="M 3.640625 0 C 3.097656 0 2.609375 -0.128906 2.171875 -0.390625 C 1.867188 -0.554688 1.609375 -0.757812 1.390625 -1 C 1.179688 -1.25 1.019531 -1.578125 0.90625 -1.984375 C 0.789062 -2.390625 0.734375 -2.925781 0.734375 -3.59375 L 2.09375 -3.59375 C 2.09375 -3.21875 2.109375 -2.90625 2.140625 -2.65625 C 2.179688 -2.414062 2.234375 -2.238281 2.296875 -2.125 C 2.441406 -1.882812 2.628906 -1.691406 2.859375 -1.546875 C 3.085938 -1.410156 3.347656 -1.34375 3.640625 -1.34375 C 3.785156 -1.34375 3.925781 -1.359375 4.0625 -1.390625 C 4.195312 -1.429688 4.320312 -1.484375 4.4375 -1.546875 C 4.675781 -1.691406 4.863281 -1.882812 5 -2.125 C 5.144531 -2.363281 5.21875 -2.628906 5.21875 -2.921875 C 5.21875 -3.066406 5.195312 -3.203125 5.15625 -3.328125 C 5.113281 -3.460938 5.0625 -3.59375 5 -3.71875 C 4.863281 -3.957031 4.675781 -4.144531 4.4375 -4.28125 C 4.195312 -4.414062 3.929688 -4.484375 3.640625 -4.484375 L 1.140625 -4.484375 L 1.140625 -8.90625 L 6.140625 -8.90625 L 6.140625 -7.546875 L 2.484375 -7.546875 L 2.484375 -5.84375 L 3.640625 -5.84375 C 4.191406 -5.84375 4.6875 -5.71875 5.125 -5.46875 C 5.582031 -5.207031 5.9375 -4.851562 6.1875 -4.40625 C 6.4375 -3.957031 6.5625 -3.460938 6.5625 -2.921875 C 6.5625 -2.390625 6.4375 -1.898438 6.1875 -1.453125 C 5.925781 -1.003906 5.570312 -0.648438 5.125 -0.390625 C 4.675781 -0.128906 4.179688 0 3.640625 0 Z M 3.640625 0 "/></g></g></g><g fill="#ccb13b" fill-opacity="1"><g transform="translate(114.876199, 17.450167)"><g/></g></g><g fill="#ccb13b" fill-opacity="1"><g transform="translate(122.112309, 17.450167)"><g><path d="M -0.109375 0 L 3.375 -8.90625 L 4.671875 -8.90625 L 8.109375 0 L 6.453125 0 L 5.96875 -1.84375 L 2.09375 -1.84375 L 1.546875 0 Z M 2.546875 -2.984375 L 5.515625 -2.984375 L 4.046875 -6.703125 Z M 2.546875 -2.984375 "/></g></g></g><g fill="#ccb13b" fill-opacity="1"><g transform="translate(133.26313, 17.450167)"><g><path d="M 5.984375 -9.734375 C 5.742188 -9.734375 5.535156 -9.757812 5.359375 -9.8125 C 5.179688 -9.875 4.988281 -9.957031 4.78125 -10.0625 C 4.625 -10.144531 4.472656 -10.207031 4.328125 -10.25 C 4.191406 -10.300781 4.078125 -10.328125 3.984375 -10.328125 C 3.890625 -10.328125 3.8125 -10.3125 3.75 -10.28125 C 3.695312 -10.257812 3.632812 -10.191406 3.5625 -10.078125 L 2.609375 -10.5625 C 2.773438 -10.8125 2.988281 -11.003906 3.25 -11.140625 C 3.507812 -11.273438 3.789062 -11.34375 4.09375 -11.34375 C 4.3125 -11.34375 4.503906 -11.3125 4.671875 -11.25 C 4.847656 -11.195312 5.046875 -11.113281 5.265625 -11 C 5.453125 -10.894531 5.585938 -10.828125 5.671875 -10.796875 C 5.765625 -10.765625 5.851562 -10.75 5.9375 -10.75 C 6.0625 -10.75 6.1875 -10.804688 6.3125 -10.921875 L 7.109375 -10.25 C 6.835938 -9.90625 6.460938 -9.734375 5.984375 -9.734375 Z M 1.140625 0 L 1.140625 -8.90625 L 2.34375 -8.90625 L 6.984375 -2.890625 L 6.984375 -8.90625 L 8.375 -8.90625 L 8.375 0 L 7.15625 0 L 2.515625 -6.015625 L 2.515625 0 Z M 1.140625 0 "/></g></g></g><g fill="#ccb13b" fill-opacity="1"><g transform="translate(145.909068, 17.450167)"><g><path d="M 5.265625 0.109375 C 4.628906 0.109375 4.039062 0.0078125 3.5 -0.1875 C 2.957031 -0.382812 2.476562 -0.679688 2.0625 -1.078125 C 1.65625 -1.472656 1.332031 -1.953125 1.09375 -2.515625 C 0.863281 -3.078125 0.75 -3.722656 0.75 -4.453125 C 0.75 -5.085938 0.847656 -5.675781 1.046875 -6.21875 C 1.242188 -6.769531 1.53125 -7.253906 1.90625 -7.671875 C 2.289062 -8.097656 2.757812 -8.425781 3.3125 -8.65625 C 3.875 -8.894531 4.523438 -9.015625 5.265625 -9.015625 C 6.140625 -9.015625 6.925781 -8.820312 7.625 -8.4375 C 8.300781 -8.0625 8.828125 -7.53125 9.203125 -6.84375 C 9.585938 -6.15625 9.78125 -5.359375 9.78125 -4.453125 C 9.78125 -3.835938 9.679688 -3.253906 9.484375 -2.703125 C 9.285156 -2.148438 8.992188 -1.660156 8.609375 -1.234375 C 8.234375 -0.816406 7.765625 -0.488281 7.203125 -0.25 C 6.640625 -0.0078125 5.992188 0.109375 5.265625 0.109375 Z M 5.265625 -1.125 C 5.835938 -1.125 6.363281 -1.257812 6.84375 -1.53125 C 7.332031 -1.800781 7.722656 -2.1875 8.015625 -2.6875 C 8.304688 -3.1875 8.453125 -3.773438 8.453125 -4.453125 C 8.453125 -5.046875 8.328125 -5.59375 8.078125 -6.09375 C 7.828125 -6.601562 7.460938 -7.015625 6.984375 -7.328125 C 6.503906 -7.640625 5.929688 -7.796875 5.265625 -7.796875 C 4.671875 -7.796875 4.132812 -7.660156 3.65625 -7.390625 C 3.175781 -7.117188 2.789062 -6.734375 2.5 -6.234375 C 2.21875 -5.734375 2.078125 -5.140625 2.078125 -4.453125 C 2.078125 -4.015625 2.148438 -3.59375 2.296875 -3.1875 C 2.441406 -2.789062 2.648438 -2.4375 2.921875 -2.125 C 3.191406 -1.820312 3.523438 -1.578125 3.921875 -1.390625 C 4.316406 -1.210938 4.765625 -1.125 5.265625 -1.125 Z M 5.265625 -1.125 "/></g></g></g><g fill="#ccb13b" fill-opacity="1"><g transform="translate(159.547951, 17.450167)"><g><path d="M 4.03125 0.109375 C 3.539062 0.109375 3.066406 0.03125 2.609375 -0.125 C 2.148438 -0.28125 1.75 -0.5 1.40625 -0.78125 C 1.070312 -1.070312 0.832031 -1.398438 0.6875 -1.765625 L 1.984375 -2.125 C 2.054688 -1.945312 2.195312 -1.78125 2.40625 -1.625 C 2.613281 -1.476562 2.863281 -1.359375 3.15625 -1.265625 C 3.445312 -1.171875 3.738281 -1.125 4.03125 -1.125 C 4.394531 -1.125 4.726562 -1.175781 5.03125 -1.28125 C 5.332031 -1.382812 5.578125 -1.53125 5.765625 -1.71875 C 5.953125 -1.914062 6.046875 -2.148438 6.046875 -2.421875 C 6.046875 -2.816406 5.882812 -3.160156 5.5625 -3.453125 C 5.25 -3.753906 4.753906 -3.929688 4.078125 -3.984375 C 3.097656 -4.078125 2.328125 -4.359375 1.765625 -4.828125 C 1.203125 -5.296875 0.921875 -5.890625 0.921875 -6.609375 C 0.921875 -7.128906 1.070312 -7.566406 1.375 -7.921875 C 1.675781 -8.285156 2.082031 -8.554688 2.59375 -8.734375 C 3.101562 -8.921875 3.671875 -9.015625 4.296875 -9.015625 C 4.992188 -9.015625 5.5625 -8.878906 6 -8.609375 C 6.4375 -8.347656 6.832031 -7.941406 7.1875 -7.390625 L 6.125 -6.703125 C 5.925781 -7.054688 5.675781 -7.320312 5.375 -7.5 C 5.070312 -7.6875 4.675781 -7.78125 4.1875 -7.78125 C 3.632812 -7.78125 3.175781 -7.679688 2.8125 -7.484375 C 2.445312 -7.285156 2.265625 -6.988281 2.265625 -6.59375 C 2.265625 -6.34375 2.332031 -6.113281 2.46875 -5.90625 C 2.601562 -5.707031 2.828125 -5.539062 3.140625 -5.40625 C 3.460938 -5.28125 3.910156 -5.191406 4.484375 -5.140625 C 5.378906 -5.078125 6.085938 -4.804688 6.609375 -4.328125 C 7.140625 -3.859375 7.40625 -3.238281 7.40625 -2.46875 C 7.40625 -1.925781 7.25 -1.460938 6.9375 -1.078125 C 6.632812 -0.691406 6.226562 -0.394531 5.71875 -0.1875 C 5.21875 0.0078125 4.65625 0.109375 4.03125 0.109375 Z M 4.03125 0.109375 "/></g></g></g></svg>