<svg xmlns="http://www.w3.org/2000/svg" xmlns:xlink="http://www.w3.org/1999/xlink" width="500" zoomAndPan="magnify" viewBox="0 0 375 30.000001" height="40" preserveAspectRatio="xMidYMid meet" version="1.0"><defs><clipPath id="519a65bfaa"><path d="M 13.453125 7 L 188 7 L 188 28.171875 L 13.453125 28.171875 Z M 13.453125 7 " clip-rule="nonzero"/></clipPath><clipPath id="ef577f3f4a"><path d="M 187 7 L 361.839844 7 L 361.839844 28.171875 L 187 28.171875 Z M 187 7 " clip-rule="nonzero"/></clipPath><clipPath id="16af9bfac1"><path d="M 184 0.59375 L 191 0.59375 L 191 15 L 184 15 Z M 184 0.59375 " clip-rule="nonzero"/></clipPath><clipPath id="5ed3822b61"><path d="M 7.132812 24.804688 L 10.769531 24.804688 L 10.769531 28.441406 L 7.132812 28.441406 Z M 7.132812 24.804688 " clip-rule="nonzero"/></clipPath><clipPath id="51b1c114d3"><path d="M 8.953125 24.804688 C 7.949219 24.804688 7.132812 25.617188 7.132812 26.621094 C 7.132812 27.625 7.949219 28.441406 8.953125 28.441406 C 9.957031 28.441406 10.769531 27.625 10.769531 26.621094 C 10.769531 25.617188 9.957031 24.804688 8.953125 24.804688 Z M 8.953125 24.804688 " clip-rule="nonzero"/></clipPath><clipPath id="bd6a4dde84"><path d="M 364.230469 24.804688 L 367.867188 24.804688 L 367.867188 28.441406 L 364.230469 28.441406 Z M 364.230469 24.804688 " clip-rule="nonzero"/></clipPath><clipPath id="11588bb56f"><path d="M 366.046875 24.804688 C 365.042969 24.804688 364.230469 25.617188 364.230469 26.621094 C 364.230469 27.625 365.042969 28.441406 366.046875 28.441406 C 367.050781 28.441406 367.867188 27.625 367.867188 26.621094 C 367.867188 25.617188 367.050781 24.804688 366.046875 24.804688 Z M 366.046875 24.804688 " clip-rule="nonzero"/></clipPath></defs><g clip-path="url(#519a65bfaa)"><path fill="#545454" d="M 95.382812 26.386719 C 138.046875 26.75 169.230469 26.671875 176.398438 26.816406 C 177.714844 26.84375 179.058594 26.800781 180.371094 26.707031 C 181.566406 26.625 182.335938 26.46875 182.949219 26.234375 C 183.566406 25.996094 184.027344 25.675781 184.390625 25.203125 C 184.757812 24.726562 185.027344 24.101562 185.128906 23.300781 C 185.230469 22.5 185.167969 21.523438 184.921875 20.808594 C 184.679688 20.089844 184.257812 19.628906 183.820312 19.25 C 183.386719 18.871094 182.9375 18.578125 182.355469 18.328125 C 181.773438 18.078125 181.054688 17.875 180.496094 17.859375 C 179.941406 17.847656 179.542969 18.027344 179.085938 18.296875 C 178.632812 18.566406 178.121094 18.925781 177.574219 19.269531 C 177.03125 19.617188 176.453125 19.949219 175.921875 20.410156 C 175.390625 20.871094 174.90625 21.460938 174.707031 22.003906 C 174.507812 22.550781 174.597656 23.050781 174.640625 23.300781 C 174.6875 23.550781 174.6875 23.550781 174.636719 23.523438 C 174.585938 23.496094 174.480469 23.445312 174.214844 23.140625 C 173.945312 22.832031 173.507812 22.269531 173.257812 21.652344 C 173.007812 21.039062 172.945312 20.371094 173.035156 19.847656 C 173.125 19.320312 173.367188 18.9375 173.667969 18.660156 C 173.96875 18.386719 174.328125 18.21875 174.507812 18.136719 C 174.6875 18.054688 174.6875 18.054688 174.566406 18.058594 C 174.445312 18.066406 174.199219 18.078125 173.875 18.1875 C 173.546875 18.296875 173.136719 18.5 172.585938 18.71875 C 172.035156 18.9375 171.34375 19.167969 170.476562 19.367188 C 169.613281 19.566406 168.574219 19.730469 167.53125 19.761719 C 166.488281 19.796875 165.4375 19.691406 164.398438 19.289062 C 163.363281 18.886719 162.335938 18.179688 161.371094 17.289062 C 160.402344 16.398438 159.492188 15.324219 159.039062 14.785156 C 158.582031 14.246094 158.582031 14.246094 158.769531 14.335938 C 158.953125 14.425781 159.324219 14.605469 160.023438 14.785156 C 160.722656 14.964844 161.746094 15.144531 162.777344 15.222656 C 163.808594 15.296875 164.847656 15.273438 165.667969 15.195312 C 166.488281 15.117188 167.089844 14.992188 167.84375 14.792969 C 168.601562 14.59375 169.511719 14.324219 170.371094 14.113281 C 171.226562 13.902344 172.035156 13.75 172.6875 13.714844 C 173.339844 13.683594 173.839844 13.773438 174.089844 13.820312 C 174.339844 13.863281 174.339844 13.863281 174.304688 13.835938 C 174.265625 13.8125 174.1875 13.761719 174.027344 13.511719 C 173.867188 13.261719 173.625 12.8125 173.40625 12.199219 C 173.1875 11.582031 172.996094 10.800781 173.164062 10.046875 C 173.328125 9.289062 173.855469 8.558594 174.238281 8.074219 C 174.621094 7.585938 174.867188 7.34375 174.910156 7.535156 C 174.957031 7.726562 174.800781 8.355469 174.820312 9 C 174.839844 9.648438 175.03125 10.316406 175.339844 10.859375 C 175.648438 11.402344 176.070312 11.828125 176.527344 12.273438 C 176.980469 12.722656 177.46875 13.195312 178.050781 13.640625 C 178.636719 14.082031 179.320312 14.492188 180.144531 14.90625 C 180.972656 15.324219 181.941406 15.746094 182.824219 16.113281 C 183.707031 16.476562 184.5 16.785156 185.160156 17.308594 C 185.820312 17.835938 186.34375 18.578125 186.652344 19.359375 C 186.960938 20.140625 187.050781 20.960938 187.042969 21.820312 C 187.039062 22.679688 186.933594 23.574219 186.660156 24.429688 C 186.382812 25.285156 185.988281 26.171875 185.230469 26.738281 C 182.980469 28.410156 176.773438 27.890625 174.945312 27.847656 C 165.597656 27.644531 137.140625 28.125 95.550781 28.125 C 53.960938 28.125 13.453125 28 13.453125 27.066406 C 13.453125 26.136719 52.714844 26.023438 95.382812 26.386719 Z M 95.382812 26.386719 " fill-opacity="1" fill-rule="evenodd"/></g><g clip-path="url(#ef577f3f4a)"><path fill="#545454" d="M 279.609375 26.386719 C 236.941406 26.75 205.757812 26.671875 198.589844 26.816406 C 197.273438 26.84375 195.933594 26.800781 194.617188 26.707031 C 193.421875 26.625 192.65625 26.46875 192.039062 26.234375 C 191.425781 25.996094 190.964844 25.675781 190.597656 25.203125 C 190.234375 24.726562 189.964844 24.101562 189.863281 23.300781 C 189.757812 22.5 189.824219 21.523438 190.066406 20.808594 C 190.308594 20.089844 190.734375 19.628906 191.167969 19.25 C 191.605469 18.871094 192.050781 18.578125 192.636719 18.328125 C 193.21875 18.078125 193.9375 17.875 194.492188 17.859375 C 195.050781 17.847656 195.449219 18.027344 195.902344 18.296875 C 196.355469 18.566406 196.871094 18.925781 197.414062 19.269531 C 197.957031 19.617188 198.535156 19.949219 199.066406 20.410156 C 199.597656 20.871094 200.085938 21.460938 200.285156 22.003906 C 200.480469 22.550781 200.394531 23.050781 200.347656 23.300781 C 200.304688 23.550781 200.304688 23.550781 200.355469 23.523438 C 200.40625 23.496094 200.507812 23.445312 200.777344 23.140625 C 201.046875 22.832031 201.480469 22.269531 201.730469 21.652344 C 201.980469 21.039062 202.046875 20.371094 201.957031 19.847656 C 201.867188 19.320312 201.621094 18.9375 201.320312 18.660156 C 201.019531 18.386719 200.660156 18.21875 200.480469 18.136719 C 200.304688 18.054688 200.304688 18.054688 200.425781 18.058594 C 200.546875 18.066406 200.789062 18.078125 201.117188 18.1875 C 201.445312 18.296875 201.851562 18.5 202.402344 18.71875 C 202.953125 18.9375 203.648438 19.167969 204.511719 19.367188 C 205.375 19.566406 206.414062 19.730469 207.457031 19.761719 C 208.503906 19.796875 209.554688 19.691406 210.589844 19.289062 C 211.628906 18.886719 212.652344 18.179688 213.621094 17.289062 C 214.585938 16.398438 215.496094 15.324219 215.953125 14.785156 C 216.40625 14.246094 216.40625 14.246094 216.222656 14.335938 C 216.035156 14.425781 215.664062 14.605469 214.964844 14.785156 C 214.269531 14.964844 213.242188 15.144531 212.210938 15.222656 C 211.179688 15.296875 210.140625 15.273438 209.320312 15.195312 C 208.503906 15.117188 207.898438 14.992188 207.144531 14.792969 C 206.386719 14.59375 205.480469 14.324219 204.621094 14.113281 C 203.761719 13.902344 202.953125 13.75 202.300781 13.714844 C 201.648438 13.683594 201.148438 13.773438 200.898438 13.820312 C 200.648438 13.863281 200.648438 13.863281 200.6875 13.835938 C 200.726562 13.8125 200.800781 13.761719 200.960938 13.511719 C 201.121094 13.261719 201.367188 12.8125 201.585938 12.199219 C 201.800781 11.582031 201.996094 10.800781 201.828125 10.046875 C 201.660156 9.289062 201.136719 8.558594 200.75 8.074219 C 200.367188 7.585938 200.125 7.34375 200.078125 7.535156 C 200.035156 7.726562 200.1875 8.355469 200.167969 9 C 200.148438 9.648438 199.957031 10.316406 199.648438 10.859375 C 199.34375 11.402344 198.917969 11.828125 198.464844 12.273438 C 198.007812 12.722656 197.523438 13.195312 196.9375 13.640625 C 196.355469 14.082031 195.671875 14.492188 194.84375 14.90625 C 194.019531 15.324219 193.046875 15.746094 192.167969 16.113281 C 191.285156 16.476562 190.488281 16.785156 189.828125 17.308594 C 189.167969 17.835938 188.644531 18.578125 188.335938 19.359375 C 188.03125 20.140625 187.941406 20.960938 187.945312 21.820312 C 187.953125 22.679688 188.054688 23.574219 188.332031 24.429688 C 188.605469 25.285156 189 26.171875 189.761719 26.738281 C 192.007812 28.410156 198.21875 27.890625 200.042969 27.847656 C 209.394531 27.644531 237.847656 28.125 279.4375 28.125 C 321.03125 28.125 361.535156 28 361.535156 27.066406 C 361.535156 26.136719 322.273438 26.023438 279.609375 26.386719 Z M 279.609375 26.386719 " fill-opacity="1" fill-rule="evenodd"/></g><g clip-path="url(#16af9bfac1)"><path fill="#545454" d="M 187.496094 14.835938 C 185.382812 13.035156 184.070312 10.515625 184.070312 7.726562 C 184.070312 4.9375 185.382812 2.414062 187.496094 0.617188 C 189.605469 2.414062 190.917969 4.9375 190.917969 7.726562 C 190.917969 10.515625 189.605469 13.035156 187.496094 14.835938 Z M 187.496094 14.835938 " fill-opacity="1" fill-rule="evenodd"/></g><path fill="#545454" d="M 182.71875 13.433594 C 180.773438 13.003906 179.019531 11.90625 177.9375 10.257812 C 176.851562 8.605469 176.652344 6.71875 177.203125 5.019531 C 179.152344 5.449219 180.90625 6.542969 181.988281 8.195312 C 183.070312 9.847656 183.273438 11.734375 182.71875 13.433594 Z M 182.71875 13.433594 " fill-opacity="1" fill-rule="evenodd"/><path fill="#545454" d="M 192.269531 13.433594 C 191.71875 11.734375 191.917969 9.847656 193.003906 8.195312 C 194.085938 6.542969 195.839844 5.449219 197.785156 5.019531 C 198.339844 6.71875 198.136719 8.605469 197.054688 10.257812 C 195.972656 11.90625 194.214844 13.003906 192.269531 13.433594 Z M 192.269531 13.433594 " fill-opacity="1" fill-rule="evenodd"/><path fill="#545454" d="M 175.8125 25.378906 C 170.25 25.378906 164.507812 25.070312 159.101562 23.671875 C 153.847656 22.3125 148.96875 19.855469 143.578125 18.941406 C 136.335938 17.570312 131.199219 19.78125 127.597656 25.652344 C 129.566406 16.371094 137.214844 15.28125 143.996094 16.433594 C 147.320312 16.996094 150.25 18.03125 153.316406 19.410156 C 162.371094 23.488281 167.140625 24.199219 175.8125 25.378906 Z M 175.8125 25.378906 " fill-opacity="1" fill-rule="nonzero"/><path fill="#545454" d="M 199.179688 25.148438 C 204.738281 25.148438 210.484375 24.84375 215.890625 23.441406 C 221.140625 22.082031 226.023438 19.625 231.410156 18.710938 C 238.652344 17.339844 243.792969 19.550781 247.390625 25.421875 C 245.425781 16.140625 237.773438 15.050781 230.992188 16.203125 C 227.671875 16.769531 224.738281 17.800781 221.675781 19.179688 C 212.617188 23.257812 207.851562 23.96875 199.179688 25.148438 Z M 199.179688 25.148438 " fill-opacity="1" fill-rule="nonzero"/><path fill="#545454" d="M 259.882812 18.011719 L 270.613281 21.675781 L 259.882812 25.335938 L 249.152344 21.675781 Z M 259.882812 18.011719 " fill-opacity="1" fill-rule="evenodd"/><path fill="#545454" d="M 115.105469 18.011719 L 125.835938 21.675781 L 115.105469 25.335938 L 104.378906 21.675781 Z M 115.105469 18.011719 " fill-opacity="1" fill-rule="evenodd"/><g clip-path="url(#5ed3822b61)"><g clip-path="url(#51b1c114d3)"><path fill="#545454" d="M 7.132812 24.804688 L 10.769531 24.804688 L 10.769531 28.441406 L 7.132812 28.441406 Z M 7.132812 24.804688 " fill-opacity="1" fill-rule="nonzero"/></g></g><g clip-path="url(#bd6a4dde84)"><g clip-path="url(#11588bb56f)"><path fill="#545454" d="M 364.230469 24.804688 L 367.867188 24.804688 L 367.867188 28.441406 L 364.230469 28.441406 Z M 364.230469 24.804688 " fill-opacity="1" fill-rule="nonzero"/></g></g></svg>