<svg xmlns="http://www.w3.org/2000/svg" xmlns:xlink="http://www.w3.org/1999/xlink" width="500" zoomAndPan="magnify" viewBox="0 0 375 30.000001" height="40" preserveAspectRatio="xMidYMid meet" version="1.0"><defs><clipPath id="01eaddd38a"><path d="M 187 0.851562 L 361.535156 0.851562 L 361.535156 22 L 187 22 Z M 187 0.851562 " clip-rule="nonzero"/></clipPath><clipPath id="6fa5eaccc4"><path d="M 13.148438 0.851562 L 188 0.851562 L 188 22 L 13.148438 22 Z M 13.148438 0.851562 " clip-rule="nonzero"/></clipPath><clipPath id="b119a54d7a"><path d="M 184 14 L 191 14 L 191 28.433594 L 184 28.433594 Z M 184 14 " clip-rule="nonzero"/></clipPath><clipPath id="aa782ac5f3"><path d="M 364.222656 0.585938 L 367.859375 0.585938 L 367.859375 4.222656 L 364.222656 4.222656 Z M 364.222656 0.585938 " clip-rule="nonzero"/></clipPath><clipPath id="938fb949f9"><path d="M 366.039062 4.222656 C 367.046875 4.222656 367.859375 3.40625 367.859375 2.402344 C 367.859375 1.398438 367.046875 0.585938 366.039062 0.585938 C 365.035156 0.585938 364.222656 1.398438 364.222656 2.402344 C 364.222656 3.40625 365.035156 4.222656 366.039062 4.222656 Z M 366.039062 4.222656 " clip-rule="nonzero"/></clipPath><clipPath id="5b4ec8c990"><path d="M 7.125 0.585938 L 10.761719 0.585938 L 10.761719 4.222656 L 7.125 4.222656 Z M 7.125 0.585938 " clip-rule="nonzero"/></clipPath><clipPath id="d85c08cebb"><path d="M 8.945312 4.222656 C 9.949219 4.222656 10.761719 3.40625 10.761719 2.402344 C 10.761719 1.398438 9.949219 0.585938 8.945312 0.585938 C 7.941406 0.585938 7.125 1.398438 7.125 2.402344 C 7.125 3.40625 7.941406 4.222656 8.945312 4.222656 Z M 8.945312 4.222656 " clip-rule="nonzero"/></clipPath></defs><g clip-path="url(#01eaddd38a)"><path fill="#545454" d="M 279.609375 2.640625 C 236.941406 2.277344 205.757812 2.355469 198.589844 2.210938 C 197.273438 2.183594 195.933594 2.226562 194.617188 2.316406 C 193.421875 2.402344 192.65625 2.554688 192.039062 2.792969 C 191.425781 3.03125 190.964844 3.351562 190.597656 3.824219 C 190.234375 4.296875 189.964844 4.925781 189.863281 5.726562 C 189.757812 6.527344 189.824219 7.5 190.066406 8.21875 C 190.308594 8.9375 190.734375 9.398438 191.167969 9.777344 C 191.605469 10.152344 192.050781 10.449219 192.636719 10.699219 C 193.21875 10.949219 193.9375 11.152344 194.492188 11.164062 C 195.050781 11.179688 195.449219 11 195.902344 10.730469 C 196.355469 10.460938 196.871094 10.101562 197.414062 9.757812 C 197.957031 9.410156 198.535156 9.078125 199.066406 8.617188 C 199.597656 8.15625 200.085938 7.566406 200.285156 7.019531 C 200.480469 6.476562 200.394531 5.976562 200.347656 5.726562 C 200.304688 5.476562 200.304688 5.476562 200.355469 5.503906 C 200.40625 5.527344 200.507812 5.578125 200.777344 5.886719 C 201.046875 6.195312 201.480469 6.757812 201.730469 7.375 C 201.980469 7.988281 202.046875 8.65625 201.957031 9.179688 C 201.867188 9.707031 201.621094 10.089844 201.320312 10.363281 C 201.019531 10.640625 200.660156 10.808594 200.480469 10.890625 C 200.304688 10.972656 200.304688 10.972656 200.425781 10.96875 C 200.546875 10.960938 200.789062 10.949219 201.117188 10.839844 C 201.445312 10.730469 201.851562 10.523438 202.402344 10.308594 C 202.953125 10.089844 203.648438 9.859375 204.511719 9.660156 C 205.375 9.460938 206.414062 9.296875 207.457031 9.261719 C 208.503906 9.230469 209.554688 9.332031 210.589844 9.738281 C 211.628906 10.140625 212.652344 10.847656 213.621094 11.734375 C 214.585938 12.625 215.496094 13.703125 215.953125 14.242188 C 216.40625 14.777344 216.40625 14.777344 216.222656 14.6875 C 216.035156 14.597656 215.664062 14.421875 214.964844 14.242188 C 214.269531 14.0625 213.242188 13.882812 212.210938 13.804688 C 211.179688 13.726562 210.140625 13.753906 209.324219 13.832031 C 208.503906 13.90625 207.898438 14.035156 207.144531 14.234375 C 206.386719 14.433594 205.480469 14.703125 204.621094 14.914062 C 203.761719 15.125 202.953125 15.277344 202.300781 15.308594 C 201.648438 15.34375 201.148438 15.253906 200.898438 15.207031 C 200.648438 15.164062 200.648438 15.164062 200.6875 15.1875 C 200.726562 15.214844 200.804688 15.265625 200.960938 15.515625 C 201.121094 15.765625 201.367188 16.214844 201.585938 16.828125 C 201.800781 17.445312 201.996094 18.226562 201.828125 18.980469 C 201.660156 19.738281 201.136719 20.46875 200.75 20.953125 C 200.367188 21.441406 200.125 21.683594 200.078125 21.492188 C 200.035156 21.300781 200.1875 20.671875 200.167969 20.023438 C 200.148438 19.378906 199.957031 18.710938 199.648438 18.167969 C 199.34375 17.621094 198.917969 17.199219 198.464844 16.75 C 198.007812 16.304688 197.523438 15.828125 196.9375 15.386719 C 196.355469 14.945312 195.671875 14.535156 194.84375 14.121094 C 194.019531 13.703125 193.046875 13.28125 192.167969 12.914062 C 191.285156 12.550781 190.488281 12.242188 189.828125 11.714844 C 189.167969 11.191406 188.644531 10.449219 188.335938 9.667969 C 188.03125 8.886719 187.941406 8.066406 187.945312 7.207031 C 187.953125 6.347656 188.054688 5.453125 188.332031 4.597656 C 188.605469 3.738281 189 2.855469 189.761719 2.289062 C 192.007812 0.617188 198.21875 1.136719 200.042969 1.175781 C 209.394531 1.382812 237.847656 0.902344 279.4375 0.902344 C 321.03125 0.902344 361.535156 1.023438 361.535156 1.957031 C 361.535156 2.890625 322.273438 3.003906 279.609375 2.640625 Z M 279.609375 2.640625 " fill-opacity="1" fill-rule="evenodd"/></g><g clip-path="url(#6fa5eaccc4)"><path fill="#545454" d="M 95.382812 2.640625 C 138.046875 2.277344 169.230469 2.355469 176.398438 2.210938 C 177.714844 2.183594 179.058594 2.226562 180.371094 2.316406 C 181.566406 2.402344 182.335938 2.554688 182.949219 2.792969 C 183.566406 3.03125 184.027344 3.351562 184.390625 3.824219 C 184.757812 4.296875 185.027344 4.925781 185.128906 5.726562 C 185.230469 6.527344 185.167969 7.5 184.921875 8.21875 C 184.679688 8.9375 184.257812 9.398438 183.820312 9.777344 C 183.386719 10.152344 182.9375 10.449219 182.355469 10.699219 C 181.773438 10.949219 181.054688 11.152344 180.496094 11.164062 C 179.941406 11.179688 179.542969 11 179.085938 10.730469 C 178.632812 10.460938 178.121094 10.101562 177.578125 9.757812 C 177.03125 9.410156 176.453125 9.078125 175.921875 8.617188 C 175.390625 8.15625 174.90625 7.566406 174.707031 7.019531 C 174.507812 6.476562 174.597656 5.976562 174.640625 5.726562 C 174.6875 5.476562 174.6875 5.476562 174.636719 5.503906 C 174.585938 5.527344 174.480469 5.578125 174.214844 5.886719 C 173.945312 6.195312 173.507812 6.757812 173.257812 7.375 C 173.007812 7.988281 172.945312 8.65625 173.035156 9.179688 C 173.125 9.707031 173.367188 10.089844 173.667969 10.363281 C 173.96875 10.640625 174.328125 10.808594 174.507812 10.890625 C 174.6875 10.972656 174.6875 10.972656 174.566406 10.96875 C 174.445312 10.960938 174.199219 10.949219 173.875 10.839844 C 173.546875 10.730469 173.136719 10.523438 172.585938 10.308594 C 172.035156 10.089844 171.34375 9.859375 170.476562 9.660156 C 169.613281 9.460938 168.574219 9.296875 167.53125 9.261719 C 166.488281 9.230469 165.4375 9.332031 164.398438 9.738281 C 163.363281 10.140625 162.335938 10.847656 161.371094 11.734375 C 160.402344 12.625 159.492188 13.703125 159.039062 14.242188 C 158.582031 14.777344 158.582031 14.777344 158.769531 14.6875 C 158.953125 14.597656 159.324219 14.421875 160.023438 14.242188 C 160.722656 14.0625 161.746094 13.882812 162.777344 13.804688 C 163.808594 13.726562 164.847656 13.753906 165.667969 13.832031 C 166.488281 13.90625 167.089844 14.035156 167.847656 14.234375 C 168.601562 14.433594 169.511719 14.703125 170.371094 14.914062 C 171.226562 15.125 172.035156 15.277344 172.6875 15.308594 C 173.339844 15.34375 173.839844 15.253906 174.089844 15.207031 C 174.339844 15.164062 174.339844 15.164062 174.304688 15.1875 C 174.265625 15.214844 174.1875 15.265625 174.027344 15.515625 C 173.867188 15.765625 173.625 16.214844 173.40625 16.828125 C 173.1875 17.445312 172.996094 18.226562 173.164062 18.980469 C 173.328125 19.738281 173.855469 20.46875 174.238281 20.953125 C 174.621094 21.441406 174.867188 21.683594 174.910156 21.492188 C 174.957031 21.300781 174.800781 20.671875 174.820312 20.023438 C 174.839844 19.378906 175.03125 18.710938 175.339844 18.167969 C 175.648438 17.621094 176.070312 17.199219 176.527344 16.75 C 176.980469 16.304688 177.46875 15.828125 178.050781 15.386719 C 178.636719 14.945312 179.320312 14.535156 180.144531 14.121094 C 180.972656 13.703125 181.941406 13.28125 182.824219 12.914062 C 183.707031 12.550781 184.5 12.242188 185.160156 11.714844 C 185.820312 11.191406 186.34375 10.449219 186.652344 9.667969 C 186.960938 8.886719 187.050781 8.066406 187.042969 7.207031 C 187.039062 6.347656 186.933594 5.453125 186.660156 4.597656 C 186.382812 3.738281 185.988281 2.855469 185.230469 2.289062 C 182.980469 0.617188 176.773438 1.136719 174.945312 1.175781 C 165.597656 1.382812 137.140625 0.902344 95.550781 0.902344 C 53.960938 0.902344 13.453125 1.023438 13.453125 1.957031 C 13.453125 2.890625 52.714844 3.003906 95.382812 2.640625 Z M 95.382812 2.640625 " fill-opacity="1" fill-rule="evenodd"/></g><g clip-path="url(#b119a54d7a)"><path fill="#545454" d="M 187.496094 14.191406 C 189.605469 15.988281 190.917969 18.511719 190.917969 21.300781 C 190.917969 24.089844 189.605469 26.609375 187.496094 28.410156 C 185.382812 26.609375 184.070312 24.089844 184.070312 21.300781 C 184.070312 18.511719 185.382812 15.988281 187.496094 14.191406 Z M 187.496094 14.191406 " fill-opacity="1" fill-rule="evenodd"/></g><path fill="#545454" d="M 192.269531 15.59375 C 194.214844 16.023438 195.972656 17.121094 197.054688 18.769531 C 198.136719 20.421875 198.339844 22.308594 197.785156 24.007812 C 195.839844 23.578125 194.085938 22.480469 193.003906 20.832031 C 191.917969 19.179688 191.71875 17.292969 192.269531 15.59375 Z M 192.269531 15.59375 " fill-opacity="1" fill-rule="evenodd"/><path fill="#545454" d="M 182.71875 15.59375 C 183.273438 17.292969 183.070312 19.179688 181.988281 20.832031 C 180.90625 22.480469 179.148438 23.578125 177.203125 24.007812 C 176.652344 22.308594 176.851562 20.421875 177.9375 18.769531 C 179.019531 17.117188 180.773438 16.023438 182.71875 15.59375 Z M 182.71875 15.59375 " fill-opacity="1" fill-rule="evenodd"/><path fill="#545454" d="M 199.179688 3.648438 C 204.738281 3.648438 210.484375 3.953125 215.890625 5.355469 C 221.140625 6.714844 226.023438 9.171875 231.410156 10.085938 C 238.652344 11.453125 243.792969 9.242188 247.390625 3.375 C 245.425781 12.65625 237.773438 13.742188 230.992188 12.59375 C 227.671875 12.027344 224.738281 10.996094 221.675781 9.613281 C 212.617188 5.539062 207.851562 4.824219 199.179688 3.648438 Z M 199.179688 3.648438 " fill-opacity="1" fill-rule="nonzero"/><path fill="#545454" d="M 175.8125 3.878906 C 170.25 3.878906 164.507812 4.183594 159.101562 5.585938 C 153.847656 6.945312 148.96875 9.402344 143.578125 10.316406 C 136.335938 11.683594 131.199219 9.472656 127.597656 3.605469 C 129.566406 12.886719 137.214844 13.972656 143.996094 12.824219 C 147.320312 12.257812 150.25 11.226562 153.316406 9.84375 C 162.371094 5.769531 167.140625 5.054688 175.8125 3.878906 Z M 175.8125 3.878906 " fill-opacity="1" fill-rule="nonzero"/><path fill="#545454" d="M 115.105469 11.011719 L 104.378906 7.351562 L 115.105469 3.691406 L 125.835938 7.351562 Z M 115.105469 11.011719 " fill-opacity="1" fill-rule="evenodd"/><path fill="#545454" d="M 259.882812 11.011719 L 249.15625 7.351562 L 259.882812 3.691406 L 270.613281 7.351562 Z M 259.882812 11.011719 " fill-opacity="1" fill-rule="evenodd"/><g clip-path="url(#aa782ac5f3)"><g clip-path="url(#938fb949f9)"><path fill="#545454" d="M 367.859375 4.222656 L 364.222656 4.222656 L 364.222656 0.585938 L 367.859375 0.585938 Z M 367.859375 4.222656 " fill-opacity="1" fill-rule="nonzero"/></g></g><g clip-path="url(#5b4ec8c990)"><g clip-path="url(#d85c08cebb)"><path fill="#545454" d="M 10.761719 4.222656 L 7.125 4.222656 L 7.125 0.585938 L 10.761719 0.585938 Z M 10.761719 4.222656 " fill-opacity="1" fill-rule="nonzero"/></g></g></svg>